<?xml version="1.0" encoding="utf-8"?>
<!--Generator: Adobe Illustrator 23.1.0, SVG Export Plug-In . SVG Version: 6.00 Build 0)-->
<svg version="1.1" id="Layer_1" xmlns="http://www.w3.org/2000/svg" xmlns:xlink="http://www.w3.org/1999/xlink" x="0px" y="0px" viewBox="0 0 635.7 595.6" style="enable-background:new 0 0 635.7 595.6" xml:space="preserve">
    <style type="text/css">
        .st37{fill:#3f3f3f}.st38{fill:none;stroke:#3f3f3f;stroke-width:.1034;stroke-miterlimit:10}.st41{fill:#fff}.st44{fill:#3b3b40}.st45{fill:#aa571a}
    </style>
    <title>
        header-teamwork
    </title>
    <g>
        <g>
            <linearGradient id="SVGID_1_" gradientUnits="userSpaceOnUse" x1="47.1001" y1="312.7135" x2="591.0015" y2="312.7135">
                <stop offset="0" style="stop-color:#fff"/>
                <stop offset="0.1431" style="stop-color:#dde1f2"/>
                <stop offset="0.5649" style="stop-color:#7f8bce"/>
                <stop offset="0.8598" style="stop-color:#4356b8"/>
                <stop offset="1" style="stop-color:#2c41af"/>
            </linearGradient>
            <path d="M162.1,78.3c65.9-0.5,111.7,59.5,163.1,94.9c59.6,41,125-3.9,188.2,14.2c60.6,17.4,97.5,96.3,66.1,158.3
			c-33.9,66.8-103.6,50.6-157.8,82.1c-58.6,34-67,124.7-147.1,119.3c-79.2-5.3-106.1-58.9-110.8-137.6
			C159,330,85.8,309.1,56.5,243.7C22.1,166.9,87.5,77.5,162.1,78.3C177.7,78.2,144.8,78.1,162.1,78.3z" style="fill:url(#SVGID_1_)"/>
        </g>
    </g>
    <g>
        <g>
            <g>
                <linearGradient id="SVGID_2_" gradientUnits="userSpaceOnUse" x1="350.3051" y1="366.1968" x2="350.3051" y2="461.2751">
                    <stop offset="0" style="stop-color:#fff"/>
                    <stop offset="0.624" style="stop-color:#667b98"/>
                    <stop offset="0.995" style="stop-color:#0f305e"/>
                </linearGradient>
                <path d="M349.3,366.7c8.9,0,23.9-1.4,31.1,5.5c9.9,9.4,14.7,24.4,15.5,37.7c0.9,13.2-1.9,32.2-9.4,43.4
				c-7.8,11.7-19.2,15.6-32.7,16.2c-12.1,0.5-28-2.1-36.6-11.4c-8.8-9.6-12-28-12.8-40.7c-0.9-14.5,3.1-28.7,11.5-40.6
				c3.7-5.3,8-7.5,14.3-8.9C332.4,367.5,349.3,365.2,349.3,366.7C353.4,366.7,349.3,366.6,349.3,366.7z" style="fill:url(#SVGID_2_)"/>
            </g>
        </g>
        <g>
            <g>
                <linearGradient id="SVGID_3_" gradientUnits="userSpaceOnUse" x1="376.3408" y1="417.9388" x2="385.3007" y2="417.9388">
                    <stop offset="0" style="stop-color:#0f305e"/>
                    <stop offset="0.3701" style="stop-color:#091d46"/>
                    <stop offset="1" style="stop-color:#000020"/>
                </linearGradient>
                <path d="M385.3,421.9c-0.2,4.5-0.2,8.7-0.5,12.9c-0.7,8.3-2.5,16.3-7,23.5c-0.3,0.4-0.5,1.2-1.1,0.9
				c-0.6-0.3-0.3-1,0-1.5c1.8-3.5,3.5-7,4.4-10.9c1-4.3,1.6-8.7,1.7-13.1c0.2-6.9,0.1-13.8-0.4-20.7c-0.4-5.3-0.8-10.7-1.5-16
				c-0.7-5.5-1.9-10.9-3.3-16.2c-0.2-0.9-0.5-1.7-0.5-2.6c0-0.6,0-1.3,0.7-1.4c0.7-0.2,1,0.4,1.2,1c1.3,3.4,2.2,7,3,10.6
				c1.7,7.5,2.3,15.2,2.8,22.9C385.1,414.8,385,418.5,385.3,421.9z" style="fill:url(#SVGID_3_)"/>
                <linearGradient id="SVGID_4_" gradientUnits="userSpaceOnUse" x1="311.4814" y1="418.3887" x2="323.1954" y2="418.3887">
                    <stop offset="0" style="stop-color:#0f305e"/>
                    <stop offset="0.3701" style="stop-color:#091d46"/>
                    <stop offset="1" style="stop-color:#000020"/>
                </linearGradient>
                <path d="M311.5,419.7c-0.1-5.7,0.6-11.3,1.4-16.9c0.8-5.7,1.8-11.2,3.8-16.6c1.1-3,2.5-5.8,4.2-8.6
				c0.4-0.6,0.7-1.6,1.7-1c0.8,0.5,0.1,1.2-0.1,1.8c-1.7,3.8-3.5,7.5-4.6,11.5c-1.5,5.2-2.3,10.6-3.1,16c-0.9,6.3-1.1,12.6-1.1,18.9
				c0.1,8.9,2.1,17.4,5.5,25.6c1.2,3,2.2,6.1,3.8,8.9c0.2,0.3,0.3,0.6,0,1c-0.4,0.4-0.8,0.1-1.1-0.2c-0.4-0.5-0.8-1-1-1.6
				c-3.2-6.8-6.3-13.6-7.8-20.9C311.8,431.6,311.5,425.7,311.5,419.7z" style="fill:url(#SVGID_4_)"/>
                <linearGradient id="SVGID_5_" gradientUnits="userSpaceOnUse" x1="340.5185" y1="423.5301" x2="343.3622" y2="423.5301">
                    <stop offset="0" style="stop-color:#0f305e"/>
                    <stop offset="0.3701" style="stop-color:#091d46"/>
                    <stop offset="1" style="stop-color:#000020"/>
                </linearGradient>
                <path d="M340.6,421.6c0-7.8,0-13.7,0-19.6c0-7,0.3-14,0.8-21c0-0.6,0.1-1.5,1-1.4c0.8,0,0.8,0.8,0.8,1.4
				c0.2,8.5-0.3,16.9-0.4,25.4c0,0.7-0.1,1.4-0.1,2.2c-0.1,15.4-0.5,30.8-0.3,46.3c0.1,3.9,0.3,7.8,0.5,11.6c0,0.4,0.3,1-0.3,1.1
				c-0.6,0.1-0.6-0.6-0.7-1c-0.3-1.4-0.5-2.7-0.6-4.1c-0.2-4.5-0.5-8.9-0.5-13.4C340.8,439.3,340.3,429.5,340.6,421.6z" style="fill:url(#SVGID_5_)"/>
                <linearGradient id="SVGID_6_" gradientUnits="userSpaceOnUse" x1="354.9223" y1="424.1615" x2="360.4048" y2="424.1615">
                    <stop offset="0" style="stop-color:#0f305e"/>
                    <stop offset="0.3701" style="stop-color:#091d46"/>
                    <stop offset="1" style="stop-color:#000020"/>
                </linearGradient>
                <path d="M360.3,425.7c-0.3,4.8,0.1,12.3-0.5,19.7c-0.6,7.4-1.2,14.8-3.7,21.9c0,0.1,0,0.3-0.1,0.4
				c-0.2,0.4-0.4,0.9-0.8,0.7c-0.4-0.1-0.3-0.6-0.2-1c0.5-2.6,1-5.2,1.6-7.8c0.6-2.6,0.8-5.2,1-7.9c0.9-11.1,0.8-22.2,0.8-33.3
				c0-7.4-0.4-14.8-0.8-22.2c-0.2-4.7-1-9.4-1-14.1c0-0.8-0.3-2.1,0.8-2.1c1.1,0,1,1.3,1.1,2.1C360.4,395.7,360.6,409.3,360.3,425.7
				z" style="fill:url(#SVGID_6_)"/>
                <linearGradient id="SVGID_7_" gradientUnits="userSpaceOnUse" x1="321.8222" y1="421.5904" x2="330.918" y2="421.5904">
                    <stop offset="0" style="stop-color:#0f305e"/>
                    <stop offset="0.3701" style="stop-color:#091d46"/>
                    <stop offset="1" style="stop-color:#000020"/>
                </linearGradient>
                <path d="M321.8,424.4c0.2-6.4,0.3-12.9,0.9-19.3c0.7-7.4,1.5-14.7,3.2-22c0.3-1.3,0.6-2.5,1.3-3.6
				c0.3-0.5,0.7-1.4,1.5-1c0.7,0.3,0.3,1.1,0.2,1.7c-1.6,5.4-2.3,10.9-3.1,16.4c-0.9,6.3-1.5,12.7-1.8,19.1
				c-0.3,6.7-0.6,13.3,0.1,20c0.8,7.6,2.1,15,4.4,22.3c0.5,1.7,1.2,3.3,1.8,4.9c0.2,0.6,1,1.5,0.1,1.9c-0.7,0.3-0.9-0.9-1.2-1.5
				c-2-4.3-3.3-8.9-4.4-13.4C322.9,441.5,321.9,433,321.8,424.4z" style="fill:url(#SVGID_7_)"/>
                <linearGradient id="SVGID_8_" gradientUnits="userSpaceOnUse" x1="330.8368" y1="421.7319" x2="336.895" y2="421.7319">
                    <stop offset="0" style="stop-color:#0f305e"/>
                    <stop offset="0.3701" style="stop-color:#091d46"/>
                    <stop offset="1" style="stop-color:#000020"/>
                </linearGradient>
                <path d="M330.9,414.6c-0.2-6.1,0.1-12.1,0.8-18.1c0.5-5,1.3-10.1,2.9-14.9c0.1-0.4,0.3-0.8,0.4-1.1
				c0.3-0.5,0.5-1.3,1.3-1.1c0.8,0.3,0.5,1.1,0.4,1.6c-0.8,3.2-1.4,6.4-2,9.6c-0.6,3.4-1,6.9-1.3,10.3c-0.3,3.6-0.4,7.3-0.6,11
				c-0.3,5.8,0.1,11.5,0.3,17.2c0.2,4.2,0.5,8.5,0.9,12.7c0.4,4.3,1.1,8.6,1.5,13c0.3,2.8,0.9,5.5,1.2,8.2c0.1,0.5,0.2,1-0.4,1.1
				c-0.5,0.1-0.6-0.5-0.7-0.9c-0.5-2.5-1-5.1-1.4-7.6c-0.6-3.6-1.1-7.3-1.6-10.9c-0.4-2.9-0.7-5.8-0.9-8.7c-0.4-4.6-0.7-9.3-1-13.9
				C330.8,419.6,330.9,417.1,330.9,414.6z" style="fill:url(#SVGID_8_)"/>
                <linearGradient id="SVGID_9_" gradientUnits="userSpaceOnUse" x1="367.2043" y1="422.6565" x2="375.6092" y2="422.6565">
                    <stop offset="0" style="stop-color:#0f305e"/>
                    <stop offset="0.3701" style="stop-color:#091d46"/>
                    <stop offset="1" style="stop-color:#000020"/>
                </linearGradient>
                <path d="M375.6,426c0,5.3-0.1,10.2-0.6,15c-0.8,7.8-2.9,15.3-5.7,22.7c-0.2,0.6-0.5,1.2-1,1.6c-0.3,0.3-0.7,0.3-1,0
				c-0.3-0.3,0-0.5,0.2-0.7c0.5-0.6,0.7-1.3,0.9-2c1.6-5.3,3.4-10.5,4.3-16c0.7-4.1,1-8.2,1.1-12.4c0.2-5.2,0-10.4-0.3-15.6
				c-0.3-4.8-0.9-9.6-1.3-14.4c-0.3-4.3-0.6-8.6-0.9-12.8c-0.2-2.9-0.5-5.8-0.7-8.8c-0.1-0.6-0.1-1.3,0-1.9c0.1-0.4,0.3-0.9,0.8-0.9
				c0.6,0,0.9,0.4,1,0.9c0.3,2.1,0.7,4.3,0.8,6.4c0.5,6.5,1,13,1.3,19.6C375.1,413.3,375.7,419.9,375.6,426z" style="fill:url(#SVGID_9_)"/>
                <linearGradient id="SVGID_10_" gradientUnits="userSpaceOnUse" x1="361.425" y1="423.7473" x2="368.0306" y2="423.7473">
                    <stop offset="0" style="stop-color:#0f305e"/>
                    <stop offset="0.3701" style="stop-color:#091d46"/>
                    <stop offset="1" style="stop-color:#000020"/>
                </linearGradient>
                <path d="M368,427.7c0,4.7,0,9.4,0,14.1c0,7.5-1.6,14.6-4.5,21.5c-0.4,1-0.7,2-1.1,3c-0.1,0.3,0,1-0.7,0.7
				c-0.5-0.2-0.3-0.7-0.2-1.1c0.3-1.2,0.7-2.4,1.1-3.6c1.8-4.7,2.9-9.5,3.5-14.5c0.7-6.7,0.6-13.4,0.4-20.2c-0.2-4.3-0.1-8.7-0.3-13
				c-0.3-6.2-0.7-12.4-1.1-18.6c-0.3-4.8-0.4-9.6-0.6-14.3c0-0.6-0.2-1.5,0.7-1.4c0.8,0,0.8,0.8,0.9,1.4c0.7,4.8,0.8,9.7,1.1,14.5
				c0.6,9.7,0.8,19.4,0.8,29.1C368,426.2,368,427,368,427.7C368,427.7,368,427.7,368,427.7z" style="fill:url(#SVGID_10_)"/>
                <linearGradient id="SVGID_11_" gradientUnits="userSpaceOnUse" x1="348.1382" y1="424.1258" x2="351.153" y2="424.1258">
                    <stop offset="0" style="stop-color:#0f305e"/>
                    <stop offset="0.3701" style="stop-color:#091d46"/>
                    <stop offset="1" style="stop-color:#000020"/>
                </linearGradient>
                <path d="M350.4,403.4c0,4.3,0,8.6,0,12.9c0,10.1,0.5,20.2,0.6,30.4c0.1,5.7,0.1,11.5,0.1,17.2
				c0,1.2-0.2,2.4-0.3,3.6c0,0.3-0.1,0.8-0.6,0.8c-0.6,0-0.4-0.5-0.4-0.8c0-2.1,0.2-4.3,0.2-6.4c-0.1-8.4-0.4-16.7-0.7-25.1
				c-0.1-2.4-0.1-4.9-0.2-7.3c-0.3-6.9-0.6-13.7-0.6-20.6c0-3.6,0-7.1-0.2-10.7c-0.3-5.2,0.2-10.4,0.2-15.6c0-0.1,0-0.3,0-0.4
				c0.2-0.5,0.1-1.3,0.9-1.3c0.8,0,0.6,0.7,0.7,1.2c0.2,0.8,0.2,1.5,0.2,2.3C350.4,390.2,350.4,396.8,350.4,403.4z" style="fill:url(#SVGID_11_)"/>
            </g>
        </g>
        <g>
            <g>
                <linearGradient id="SVGID_12_" gradientUnits="userSpaceOnUse" x1="322.8969" y1="373.4773" x2="374.4978" y2="373.4773">
                    <stop offset="0" style="stop-color:#0f305e"/>
                    <stop offset="0.3701" style="stop-color:#091d46"/>
                    <stop offset="1" style="stop-color:#000020"/>
                </linearGradient>
                <path d="M348.3,369.2c6.9-0.3,13.6,0.5,20.4,1.5c1.6,0.2,3.1,0.3,4.5,1.2c1.6,1,1.7,2.4,0.2,3.5
				c-2.2,1.5-4.7,2.2-7.3,2.3c-10.3,0.6-20.6-0.1-30.9-0.6c-3.5-0.2-7-1-10.4-1.9c-0.2-0.1-0.4-0.1-0.6-0.2
				c-0.7-0.3-1.3-0.6-1.3-1.5c0-0.8,0.6-1.2,1.2-1.5c1.8-0.9,3.7-1.1,5.6-1.5C335.9,369.5,342.1,369.4,348.3,369.2z" style="fill:url(#SVGID_12_)"/>
            </g>
        </g>
        <g>
            <g>
                <linearGradient id="SVGID_13_" gradientUnits="userSpaceOnUse" x1="264.8266" y1="301.8558" x2="419.6385" y2="301.8558">
                    <stop offset="0" style="stop-color:#0f305e"/>
                    <stop offset="0.3701" style="stop-color:#091d46"/>
                    <stop offset="1" style="stop-color:#000020"/>
                </linearGradient>
                <path d="M301.2,334.4c-0.3-0.4-0.5-0.7-0.7-1.1c-1.9-2.9-1.4-5.8,1.5-7.8c2.7-1.9,5.9-2.8,9.2-3
				c6.3-0.4,12.4,0.9,18.3,3.2c0.4,0.2,0.9,0.6,1.2,0.3c0.5-0.4,0.3-1,0.2-1.5c-1.8-6.2-1.7-12.5-1.1-18.8c0.1-1.1-0.2-1.5-1.4-1.6
				c-6.2-0.6-12.2,0.5-17.9,2.7c-5.5,2-11.1,3.1-17,2.8c-3.9-0.2-7.5-1-10.8-3.2c-3.5-2.3-5.5-5.6-5.5-9.8c0-1.3-0.5-1.9-1.7-2.1
				c-2.4-0.5-4.6-1.6-6.5-3.3c-5.2-4.5-5.4-12.2-0.4-16.9c0.8-0.8,0.9-1.2,0.2-2.1c-1-1.2-1.8-2.5-2.4-3.9c-1.4-3.4-0.3-6.2,3.1-7.7
				c2.8-1.2,5.7-1.6,8.7-2c3.1-0.4,6.3-0.7,9.5-0.6c1.3,0,2.5-0.6,3.6-1c4.3-1.4,8.4-1.4,12.2,1.3c0.9,0.7,1.9,1.2,2.9,1.8
				c2.5,1.6,5.2,2.8,8,4c8.5,3.6,14.6,9.8,19.4,17.5c0.3,0.5,0.7,1.1,1.1,1.7c0.8-1.6,1.6-3,2.3-4.5c0.2-0.4,0-0.7-0.1-1
				c-3.4-10.1-8.7-19.2-15.3-27.6c-1.7-2.1-3.8-3.9-5.9-5.6c-2.6-2.2-5.2-4.4-7.1-7.2c-1.4-2-2.3-4.3-2.6-6.8
				c-0.6-4.3,3.2-7.7,7.7-7.2c1.9,0.2,3.7,1.5,5.5,1.4c1.8-0.1,3.5-1.1,5.3-1.4c3.5-0.4,7-0.3,10.5,0.8c2,0.6,3.7,1.6,4.8,3.3
				c1.4,2.1,3.3,3.2,5.9,3.2c6.3,0.1,13.2,5.3,14.5,14c0.9,6.3-0.1,12.5-1.5,18.7c-0.3,1.3-0.6,2.6-1,3.9c-0.2,0.6,0,0.9,0.6,1.1
				c0.5,0.1,1,0.2,1.4,0.5c1.7,1.3,3.6,1.4,5.6,0.7c0.7-0.2,1.1-0.4,1.4-1.1c0.9-2,1.9-4,3.2-5.8c1.5-2.1,3.4-3.7,6.3-3
				c0.5,0.1,0.7-0.2,0.9-0.6c3.5-6,9.2-8.2,15.6-8.8c3.2-0.3,5.7,1.2,7,4.4c1.7-1.4,3.4-2.4,5.4-3.1c0.6-0.2,1.2-0.4,1.8-0.6
				c4.5-0.9,7.3,2.2,6.4,6.9c-0.8,4.3-3,7.8-6,10.9c-4.1,4.4-8.7,8.3-12.9,12.6c-1.8,1.8-3.6,3.7-5.4,5.5c-0.4,0.4-0.8,0.7-0.3,1.4
				c2.9,4.2,3,9,2.4,13.8c-0.1,1-0.4,2-0.6,3.1c-0.3,1.4-0.6,2.8-0.6,4.2c-0.1,2.9-1.5,5.4-3,7.7c-1.2,1.9-2.8,3.4-4.3,5.1
				c2.5-0.8,5-1.5,7.5-1.9c4.4-0.7,8.8-0.6,13.1,0.7c1.9,0.6,3.6,1.5,5,2.9c1.7,1.8,1.8,3.5,0.3,5.5c-0.6,0.9-1.4,1.7-2,2.5
				c0.9,0.6,1.7,1.3,2.6,1.9c3.7,3.1,5.7,7.3,6.8,11.9c0.5,2.5-0.8,4.3-2.9,5.5c-1.2,0.7-1.1,1.2-0.3,2c4.3,4.3,6.2,9.8,7,15.7
				c0.9,6.2-3.3,11.1-9.7,11.7c-6.2,0.6-11.6-1.4-16.4-5.1c-1.7-1.4-3.4-2.8-5.5-3.7c-1-0.4-2-0.5-3-0.2c-3.9,1.4-7.7,0.8-11.4-0.7
				c-8-3.4-12.8-9.3-14.2-17.9c-0.4-2.3-1.1-4.5-2.1-6.8c-2.5,2.3-4.6,4.8-5.7,8c-0.4,1.2,0.1,2.5,0.3,3.8c0.6,5,0.2,9.9,0,14.9
				c0,0.8,0,1.6,0,2.4c0,0.9-0.4,1.6-1.3,1.8c-1,0.1-1.9-0.1-2.3-1.2c-0.5-1.4-0.5-2.8-0.6-4.3c-0.4-4.5-1.8-8.8-2.6-13.3
				c-0.6-3.4-2.1-6.3-4.1-9c-0.5-0.7-0.7-0.5-1.3-0.1c-2.5,1.9-4.9,4-7.1,6.3c-1.4,1.4-2.7,2.8-4.2,4c-4.1,3.4-8.7,4.9-14,3.5
				c-0.8-0.2-1.3,0.1-1.9,0.4c-4.7,2.7-9.7,4.9-15.1,5.9c-3.8,0.7-7.4,0-10.6-2.2c-2.9-2-3.6-4.7-2.1-8c0.8-1.8,2-3.4,3.4-4.9
				c0.4-0.4,0.6-0.7,0.2-1.2c-1.8-2.4-1.5-5-0.5-7.6c1.2-3.2,3.5-5.4,6.2-7.3C296.1,336.5,298.6,335.4,301.2,334.4z" style="fill:url(#SVGID_13_)"/>
            </g>
        </g>
        <g>
            <g>
                <linearGradient id="SVGID_14_" gradientUnits="userSpaceOnUse" x1="357.5439" y1="204.1872" x2="356.8343" y2="376.6053">
                    <stop offset="0" style="stop-color:#fff"/>
                    <stop offset="0.3002" style="stop-color:#a6b2c3"/>
                    <stop offset="0.8227" style="stop-color:#0f305e"/>
                    <stop offset="0.995" style="stop-color:#0f305e"/>
                </linearGradient>
                <path d="M359.1,307.7c2.1-4.6,3.9-9,5-13.8c0.1-0.3,0.1-0.5-0.1-0.8c-3.9-4.8-6.7-10.3-9.1-16
				c-0.1-0.3-0.1-0.7-0.1-1.1c0-0.8,0.4-0.7,0.9-0.4c0.4,0.3,0.6,0.8,0.8,1.2c2.2,4.8,5,9.2,7.9,13.6c0,0.1,0.2,0.1,0.4,0.1
				c0.3-2.1,0.8-4.2,0.9-6.3c0.1-2.4,0.6-4.8,0.1-7.2c-0.1-0.4-0.3-1.1,0.4-1.2c0.5-0.1,0.9,0.5,1,1c0.4,1.9,0.6,3.8,0.4,5.8
				c-0.2,2.5-0.2,5-0.8,7.9c1.8-1.6,3.4-3,5-4.3c0.7-0.7,1.5-1.3,2.2-2c0.2-0.2,0.5-0.5,0.8-0.3c0.4,0.3,0,0.7-0.2,0.9
				c-1.2,1.3-2.5,2.6-3.8,3.8c-1.2,1.1-2.4,2.2-3.7,3.2c-0.4,0.3-0.7,0.8-0.7,1.3c-0.5,4-2,7.7-3.4,11.4c-0.1,0.2-0.2,0.4-0.1,0.7
				c4.2-3.2,8.7-6.1,12.6-9.8c0.6-0.6,1.3-1.1,2-1.6c0.4-0.3,1-0.4,1.4-0.1c0.5,0.4,0.1,0.9-0.1,1.3c-0.3,0.6-0.7,1-1.1,1.5
				c-3.9,3.9-8.1,7.3-12.5,10.6c-1.7,1.3-3.3,2.8-5,4.2c-0.1,0.1-0.2,0.2-0.3,0.3c-1.6,3.3-3.2,6.7-4.6,10.1
				c2.3-1.7,4.9-2.7,7.4-3.8c5.2-2.1,10.1-4.6,15.2-7c0.7-0.3,1.7-0.9,2.2-0.2c0.5,0.9-0.6,1.5-1.3,1.9c-5.7,3.1-11.4,6-17.3,8.7
				c-2.4,1.1-4.4,2.6-6.5,4.3c-3.1,2.6-3.2,6.2-4.3,9.5c-0.1,0.4-0.5,0.8-0.2,1.3c4.3-3.5,9.2-6.3,14-9c0.5-0.3,1.1-0.7,1.7-0.7
				c0.3,0,0.6-0.1,0.7,0.2c0.1,0.3,0,0.5-0.2,0.7c-0.4,0.5-1,0.9-1.6,1.2c-4.3,2.5-8.5,5-12.4,8.1c-0.9,0.7-1.7,1.5-2.5,2.3
				c-0.5,0.4-0.6,1-0.6,1.6c-0.1,3-0.2,6-0.3,9.1c-0.1,4.9,0.6,9.6,1,14.4c0.3,2.8,0.1,5.6,0.1,8.4c0,0.8,0,1.5,0.5,2.2
				c0.3,0.5,0.5,1.1-0.1,1.4c-0.7,0.4-1.2-0.1-1.5-0.7c-0.6-1.4-0.7-3-0.8-4.5c-0.3-4.5-0.7-9-1.3-13.4c-0.6-3.9-0.4-7.8,0.1-11.7
				c0.3-2.2,0.6-4.3,1.1-6.5c0-0.2,0.1-0.4-0.1-0.5c-3.3-2.5-6.3-5.3-9.3-8c-0.5-0.5-1-0.9-1.4-1.5c-0.3-0.4-0.7-0.8-0.3-1.3
				c0.5-0.5,0.9-0.1,1.3,0.2c0.9,0.7,1.7,1.4,2.5,2.1c2.5,2.1,5.1,4.2,7.7,6.4c0.3-1.3,0.5-2.7,0.9-4c0.5-1.9,1.1-3.9,1.6-5.8
				c0.1-0.4,0.3-0.8-0.2-1c-2.9-1.7-4.6-4.4-6.5-7c-3-4.1-6-8.1-9-12.2c-0.1-0.2-0.3-0.3-0.4-0.5c-0.2-0.7-1.2-1.5-0.3-2.1
				c0.8-0.5,1.5,0.4,2,1c2.5,3.1,4.9,6.3,7.4,9.3c2.4,3,4.6,6.1,7.3,8.9c0.2,0.2,0.4,0.5,0.8,0.6c1.5-4.4,3.4-8.6,5.4-12.7
				c0.3-0.6,0.4-1.1-0.1-1.7c-7.1-7.1-11.6-16-16.7-24.5c-0.4-0.7-1.2-1.7-0.3-2.2c0.9-0.5,1.5,0.5,2,1.2c2.2,3.3,4.3,6.7,6.4,10
				C351.8,298.9,355.3,303.2,359.1,307.7z" style="fill:url(#SVGID_14_)"/>
                <linearGradient id="SVGID_15_" gradientUnits="userSpaceOnUse" x1="301.3145" y1="203.9557" x2="300.6049" y2="376.3736">
                    <stop offset="0" style="stop-color:#fff"/>
                    <stop offset="0.3002" style="stop-color:#a6b2c3"/>
                    <stop offset="0.8227" style="stop-color:#0f305e"/>
                    <stop offset="0.995" style="stop-color:#0f305e"/>
                </linearGradient>
                <path d="M291.8,283.5c-1.6-0.7-3.3-0.6-5-0.6c-4.8-0.2-9.5,0.2-14.2,1.5c-0.5,0.1-1.1,0.3-1.3-0.3
				c-0.2-0.6,0.2-0.9,0.7-1.2c1.5-0.8,3.1-1,4.7-1.4c4-0.8,8.1-1.3,12.2-1.1c0.2,0,0.3,0,0.7-0.1c-2-3.1-4.1-6-6.3-8.7
				c-1.3-1.6-2.8-3-4.2-4.4c-0.3-0.3-0.7-0.7-0.4-1c0.3-0.3,0.7-0.1,1.1,0.1c2.1,1.1,3.5,2.8,5,4.5c2.6,3,5,6.1,7.1,9.3
				c0.5,0.8,1.2,0.5,1.8,0.6c4.7,0.6,9.2,2,14,3.2c-1.1-2.7-2.1-5.3-3.2-7.8c-1.8-4-3.7-7.9-6.2-11.5c-0.2-0.3-0.4-0.5-0.4-0.8
				c-0.1-0.2-0.3-0.5-0.1-0.7c0.3-0.2,0.6-0.1,0.9,0c0.5,0.3,1,0.7,1.3,1.1c3.8,5.6,6.9,11.6,9.1,17.9c0.7,2.1,1.7,2.8,3.5,3.2
				c2.5,0.7,4.8,1.8,7.4,2.9c-0.6-5.1-1.6-9.9-4.6-14.4c1.6,0.3,2.2,1.2,2.7,2.1c1.8,3.2,2.4,6.7,3.1,10.2c0.1,0.7,0.4,1.5,0.3,2.3
				c-0.1,0.7,0.4,0.8,0.9,1c2,0.9,4,1.9,6,2.8c0.6,0.3,1.2,0.5,1.6,1c0.3,0.3,0.7,0.6,0.4,1c-0.2,0.3-0.6,0.4-1.1,0.3
				c-1.6-0.3-3.2-0.8-4.8-1.4c-6.5-2.8-13.1-5.5-20-7.3c-3.6-0.9-7.2-2-10.9-2.5C293.1,283.4,292.5,283.3,291.8,283.5L291.8,283.5z" style="fill:url(#SVGID_15_)"/>
                <linearGradient id="SVGID_16_" gradientUnits="userSpaceOnUse" x1="389.9129" y1="204.3204" x2="389.2033" y2="376.7383">
                    <stop offset="0" style="stop-color:#fff"/>
                    <stop offset="0.3002" style="stop-color:#a6b2c3"/>
                    <stop offset="0.8227" style="stop-color:#0f305e"/>
                    <stop offset="0.995" style="stop-color:#0f305e"/>
                </linearGradient>
                <path d="M393.4,350.8c4.9,4.8,7.3,11.2,11.2,16.7c0.8,1.1,1.6,2.2,2.4,3.4c0.3,0.5,0.8,1.2,0.3,1.5
				c-0.5,0.4-1-0.3-1.3-0.8c-3.2-4.1-6.2-8.3-9-12.8c-1.2-1.9-2.5-3.7-4.3-5.5c-0.1,2.7-0.2,5.2,0.1,7.6c0.2,1.6,0.4,3.2,0.9,4.7
				c0.1,0.2,0.2,0.7-0.2,0.8c-0.4,0.1-0.5-0.2-0.7-0.5c-0.8-1.3-1.1-2.8-1.2-4.2c-0.3-3-0.8-6-0.3-9c0.1-0.4,0-0.8-0.3-1.1
				c-4-4-8-8.1-12.8-11.2c-0.2-0.1-0.3-0.2-0.5-0.3c-0.3-0.2-0.6-0.4-0.9-0.2c-0.3,0.2-0.1,0.6,0,0.8c0.7,1.8,0.9,3.7,0.9,5.6
				c-0.2,7.6,0.9,15,3.6,22.1c0,0,0,0.1,0.1,0.1c0.2,0.6,0.5,1.3,0,1.6c-0.7,0.3-1.1-0.4-1.4-1c-1.3-2.1-1.8-4.5-2.4-6.8
				c-1.7-6.4-2.4-13-2.5-19.6c0-0.9-0.2-1.9-0.4-2.8c-0.1-0.9-0.6-1.3-1.5-1.5c-1.1-0.2-2.3-0.5-3.4-0.8c-0.4-0.1-1-0.2-0.9-0.8
				c0.1-0.6,0.7-0.5,1.1-0.5c2,0.2,3.9,0.6,5.8,1.2c1.1,0.4,2.1,0.4,3.3,0c5.5-1.9,11.2-2.9,17-3.6c1.2-0.2,2.4-0.2,3.5,0.5
				c0.3,0.2,0.7,0.4,0.6,0.8c-0.1,0.3-0.5,0.4-0.8,0.3c-2.8-0.7-5.4,0.2-8.1,0.7c-3.9,0.6-7.7,1.8-11.6,3c2.2,1.5,4.4,3.1,6.4,4.8
				c1.9,1.6,3.7,3.3,5.5,5c0.3,0.3,0.7,1.1,1.2,0.1c0.2-0.3,0.7-0.2,1.2-0.2c4.9-0.2,9.6,0.7,14.4,1.8c0.3,0.1,0.6,0.1,0.9,0.3
				c0.5,0.3,1,0.6,0.7,1.3c-0.3,0.7-0.8,0.1-1.2,0c-3.5-0.9-7-1.4-10.6-1.4C396.4,350.9,394.9,351.1,393.4,350.8z" style="fill:url(#SVGID_16_)"/>
                <linearGradient id="SVGID_17_" gradientUnits="userSpaceOnUse" x1="328.3648" y1="204.0671" x2="327.6552" y2="376.4848">
                    <stop offset="0" style="stop-color:#fff"/>
                    <stop offset="0.3002" style="stop-color:#a6b2c3"/>
                    <stop offset="0.8227" style="stop-color:#0f305e"/>
                    <stop offset="0.995" style="stop-color:#0f305e"/>
                </linearGradient>
                <path d="M336.9,270.3c3.5-7.2,7.7-13.9,11.2-21.1c0.1-0.1,0.3-0.2,0.5-0.4c0.4,1,0.1,1.8-0.3,2.6
				c-2.3,5.5-5.3,10.6-8.1,15.7c-1,1.8-2.1,3.7-2.3,5.8c-0.1,1.1,0.1,2.2,0,3.3c0,0.4,0.3,0.9-0.3,1c-0.7,0.2-0.9-0.5-1-0.9
				c-0.6-2-1.3-3.9-2-5.8c-1.9-4.7-4-9.3-7.6-13.1c-1.7-1.8-3-3.9-4.4-6c-2.8-4.3-6.5-7.8-10.5-10.8c-2.1-1.6-3.4-3.8-4.3-6.2
				c-0.2-0.5-0.2-1,0-1.5c0.7,0,0.9,0.5,1.1,1c1,2.7,2.8,4.6,5.1,6.2c4,2.8,7.2,6.3,10.2,10c0.1,0.1,0.2,0.3,0.4,0.4
				c0.4-0.7-0.1-1.2-0.1-1.7c-0.1-4,0.4-7.9,0.7-11.9c0.1-1.3,0.3-2.7,0.5-4c0.1-0.4,0.3-0.8,0.4-1.1c0.2-0.3,0.4-0.5,0.8-0.4
				c0.3,0.1,0.3,0.5,0.2,0.7c-0.1,0.8-0.2,1.7-0.3,2.5c-0.5,4.2-0.7,8.4-0.8,12.5c-0.1,2,0.8,3.9,0.7,5.9c0,0.1,0.2,0.3,0.3,0.4
				c1.5,1.8,3,3.6,4.6,5.4c1.2-4.4,2.5-8.7,3.7-13c0.7-2.7,1.4-5.3,2.2-8c0.2-0.6,0.4-1.7,1.2-1.5c0.7,0.2,0.4,1.3,0.2,1.9
				c-1,3.9-2.1,7.9-3,11.8c-0.9,3.6-2,7.2-2.3,10.9c-0.1,0.7,0.1,1.4,0.4,2.1C335.3,265.7,336.2,267.9,336.9,270.3z" style="fill:url(#SVGID_17_)"/>
                <linearGradient id="SVGID_18_" gradientUnits="userSpaceOnUse" x1="313.007" y1="204.0037" x2="312.2974" y2="376.422">
                    <stop offset="0" style="stop-color:#fff"/>
                    <stop offset="0.3002" style="stop-color:#a6b2c3"/>
                    <stop offset="0.8227" style="stop-color:#0f305e"/>
                    <stop offset="0.995" style="stop-color:#0f305e"/>
                </linearGradient>
                <path d="M302.3,361c1.6-5,4.1-9.2,6.2-13.8c-1.1,0.4-1.8,1.1-2.6,1.7c-4.2,3.1-8.4,6.2-12.1,9.9
				c-0.3,0.3-0.7,0.8-1.1,0.5c-0.5-0.4,0.1-0.8,0.3-1.1c1.3-1.8,3.1-3.1,4.8-4.6c2.7-2.4,5.6-4.7,8.5-7c-0.8-0.6-1.7-0.5-2.6-0.6
				c-2.7-0.3-5.4-0.7-8.1-0.6c-0.4,0-0.9,0.2-1-0.4c-0.1-0.5,0.4-0.6,0.8-0.7c1.5-0.5,3-0.4,4.4-0.2c2.7,0.3,5.5,0.2,8.1,1
				c0.4,0.1,0.7-0.2,1-0.3c2.9-1.9,5.9-3.8,9-5.4c0.7-0.4,0.6-0.7,0.1-1c-2-1.4-4-2.9-6.7-2.7c-0.5,0-1.2,0.1-1.3-0.5
				c-0.1-0.6,0.6-0.8,1.1-1.1c1-0.5,2-0.2,2.9,0.1c2.3,0.8,4.5,1.7,6.2,3.6c0.2,0.2,0.4,0.5,0.8,0.3c2.6-1.1,5.3-1.9,8.1-2.7
				c-2-1.9-4.2-2.9-6.7-3.4c-0.5-0.1-1.1-0.2-1.6-0.3c-0.3-0.1-0.8-0.2-0.7-0.6c0.1-0.3,0.5-0.4,0.9-0.4c3.5,0.3,6.7,1.3,9.1,4.1
				c0.1,0.2,0.2,0.5,0.4,0.4c2.1-0.2,1.6,1.5,1.4,2.3c-0.9,4.6-2.2,9.2-4.3,13.5c-0.3,0.7-0.7,1.3-1.5,1.7c-0.4-0.5,0-1,0.2-1.4
				c2-4.3,3.2-8.8,4.2-13.4c0.2-0.8,0.1-1.3-1-0.9c-2.4,0.7-4.8,1.5-7.1,2.4c-0.6,0.2-0.9,0.4-0.7,1.2c0.1,0.7-0.1,1.4-0.3,2.1
				c-1.7,4.7-3.7,9.3-6.3,13.6c-0.4,0.6-0.8,1.1-1.6,1.4c3-5.6,5.6-11.3,7.5-17.6c-3.9,1.7-7.2,3.8-10.6,5.8
				c-0.6,0.3-0.1,0.9-0.4,1.4c-2.2,4.2-4.3,8.5-6.5,12.8C303.5,360.3,303.2,360.6,302.3,361z" style="fill:url(#SVGID_18_)"/>
                <linearGradient id="SVGID_19_" gradientUnits="userSpaceOnUse" x1="397.4648" y1="204.3515" x2="396.7552" y2="376.7692">
                    <stop offset="0" style="stop-color:#fff"/>
                    <stop offset="0.3002" style="stop-color:#a6b2c3"/>
                    <stop offset="0.8227" style="stop-color:#0f305e"/>
                    <stop offset="0.995" style="stop-color:#0f305e"/>
                </linearGradient>
                <path d="M394.5,278.8c1.9-1.7,3.9-3.2,5.6-5c1.7-1.7,2.1-4.3,4-6.4c-0.3,1.8-1.4,2.9-1.8,4.4c1.7-1.3,2.7-3,4.5-4
				c0.3,0.7,0,1-0.3,1.4c-2.8,3.2-5.9,6.1-8.9,9.1c-2.5,2.4-5.1,4.7-7.6,7.1c-0.6,0.5-1.2,1-1.8,1.5c-0.2,0.2-0.5,0.4-0.8,0.1
				c-0.4-0.3,0-0.6,0.1-0.8c0.7-1.3,1.7-2.2,2.8-3.1c1.2-1,1.8-2.2,2.1-3.6c1.3-5.1,2.4-10.3,3-15.5c0.2-1.5,0.2-3.1,0.3-4.6
				c0-0.4-0.3-1,0.4-1.1c0.7,0,0.9,0.6,0.9,1.1c0,1.3,0.1,2.6,0,3.9c-0.4,3.3-0.6,6.7-1.4,10c-0.4,1.8-0.9,3.6-1.4,5.4
				C394.3,278.7,394.4,278.8,394.5,278.8z" style="fill:url(#SVGID_19_)"/>
                <linearGradient id="SVGID_20_" gradientUnits="userSpaceOnUse" x1="299.3397" y1="203.9475" x2="298.6301" y2="376.3661">
                    <stop offset="0" style="stop-color:#fff"/>
                    <stop offset="0.3002" style="stop-color:#a6b2c3"/>
                    <stop offset="0.8227" style="stop-color:#0f305e"/>
                    <stop offset="0.995" style="stop-color:#0f305e"/>
                </linearGradient>
                <path d="M306.5,287.2c0.5,0,0.8,0.1,1,0.6c0.2,0.6-0.2,0.9-0.7,1.2c-1.9,1-3.8,2.1-5.7,3.1c-3,1.7-5.9,3.5-8.8,5.5
				c-0.6,0.4-1.4,1.1-1.9,0.5c-0.4-0.5,0.4-1.2,1-1.7c4.4-3.3,9.3-6,14-8.9C305.8,287.3,306.2,287.1,306.5,287.2z" style="fill:url(#SVGID_20_)"/>
                <linearGradient id="SVGID_21_" gradientUnits="userSpaceOnUse" x1="382.9633" y1="204.2917" x2="382.2538" y2="376.7095">
                    <stop offset="0" style="stop-color:#fff"/>
                    <stop offset="0.3002" style="stop-color:#a6b2c3"/>
                    <stop offset="0.8227" style="stop-color:#0f305e"/>
                    <stop offset="0.995" style="stop-color:#0f305e"/>
                </linearGradient>
                <path d="M383.5,273.1c0.1,2,0,4.5-0.3,7.1c0,0.5-0.1,1.3-0.7,1.3c-0.6,0-0.8-0.8-0.7-1.4c0.4-3.8,0.5-7.6,0.5-11.3
				c0-0.8-0.1-2,0.7-2.1c0.7,0,0.3,1.2,0.4,1.9C383.5,269.8,383.5,271.2,383.5,273.1z" style="fill:url(#SVGID_21_)"/>
                <linearGradient id="SVGID_22_" gradientUnits="userSpaceOnUse" x1="315.0582" y1="204.0118" x2="314.3486" y2="376.4304">
                    <stop offset="0" style="stop-color:#fff"/>
                    <stop offset="0.3002" style="stop-color:#a6b2c3"/>
                    <stop offset="0.8227" style="stop-color:#0f305e"/>
                    <stop offset="0.995" style="stop-color:#0f305e"/>
                </linearGradient>
                <path d="M309.9,298.4c0.1-0.6,0.6-0.9,1-1.2c2.4-1.5,4.7-3.3,7-4.9c0.4-0.3,0.8-0.8,1.3-0.2c0.5,0.6-0.1,1-0.5,1.3
				c-2.4,1.8-4.8,3.5-7.5,5C310.9,298.6,310.4,298.8,309.9,298.4z" style="fill:url(#SVGID_22_)"/>
                <linearGradient id="SVGID_23_" gradientUnits="userSpaceOnUse" x1="288.4814" y1="203.9032" x2="287.7719" y2="376.3203">
                    <stop offset="0" style="stop-color:#fff"/>
                    <stop offset="0.3002" style="stop-color:#a6b2c3"/>
                    <stop offset="0.8227" style="stop-color:#0f305e"/>
                    <stop offset="0.995" style="stop-color:#0f305e"/>
                </linearGradient>
                <path d="M291.8,283.5c0.2,0.7-0.4,1-0.8,1.3c-1.8,1.2-3.6,2.4-5.5,3.6c-0.3,0.2-0.7,0.6-1,0.2
				c-0.3-0.4,0.2-0.7,0.5-1c1.7-1.6,3.7-2.8,5.7-4C291,283.3,291.4,283.3,291.8,283.5C291.8,283.5,291.8,283.5,291.8,283.5z" style="fill:url(#SVGID_23_)"/>
            </g>
        </g>
    </g>
    <g>
        <g>
            <g>
                <linearGradient id="SVGID_24_" gradientUnits="userSpaceOnUse" x1="420.4383" y1="228.6535" x2="475.2124" y2="228.6535">
                    <stop offset="0" style="stop-color:#0f305e"/>
                    <stop offset="0.3701" style="stop-color:#091d46"/>
                    <stop offset="1" style="stop-color:#000020"/>
                </linearGradient>
                <path d="M446.8,221.7c-5.1-3.2-9.9-6.3-14.7-9.4c-2.3-1.5-4.6-3.1-6.2-5.5c-1.1-1.5-0.7-2.7,1.2-3.2
				c1.6-0.4,3.3-0.1,4.9-0.4c3-0.5,6.1-0.9,9.2-1.1c8.1-0.6,15.7,0.9,22.4,5.7c3.9,2.7,6,6.6,7.9,10.9c2.4,5.6,2.6,11.4,3.6,17.2
				c0.2,1.4,0.1,2.8,0.1,4.2c0,0.5-0.1,1-0.6,1.1c-0.6,0.2-1-0.3-1.2-0.8c-0.3-0.9-0.5-1.9-0.7-2.8c-0.7-4.5-1.4-9-2.3-13.5
				c-0.4-2.1-2.6-2.9-4.2-1.7c-1.8,1.4-3.9,2.2-6.2,2.8c3.6,3.6,5.5,8.1,7.2,12.7c0.3,0.9,1.1,2.3,0.2,2.8c-1.2,0.6-1.5-1-2-1.8
				c-1.6-2.9-2.9-6-4.8-8.8c-0.9-1.2-2.2-1.9-3.2-2.9c-0.5-0.5-0.8,0.1-1.1,0.4c-1.1,1.1-1.9,2.4-2.5,3.7
				c-3.6,7.8-9.5,12.9-17.7,15.5c-2.2,0.7-4.3,1.8-6.4,2.6c-2.4,0.9-4.2,2.5-5.9,4.3c-0.7,0.8-1.6,1.9-2.7,1.4
				c-1.1-0.5-0.4-1.8-0.4-2.7c0.1-2,0.6-3.9,1.2-5.8c1.1-3.6,1.9-7.2,3.8-10.5c3-5.1,7.4-8.5,12.6-11
				C440.9,223.9,443.7,222.8,446.8,221.7z" style="fill:url(#SVGID_24_)"/>
                <linearGradient id="SVGID_25_" gradientUnits="userSpaceOnUse" x1="478.8277" y1="219.7364" x2="525.0389" y2="219.7364">
                    <stop offset="0" style="stop-color:#0f305e"/>
                    <stop offset="0.3701" style="stop-color:#091d46"/>
                    <stop offset="1" style="stop-color:#000020"/>
                </linearGradient>
                <path d="M478.8,238.3c0.5-6.5,0.9-13,2.8-19.3c0.5-1.7,0.4-3.5,0.3-5.2c-0.5-8.2,4.4-16.1,14.9-18.1
				c6.1-1.1,12-0.4,17.9,0.8c2.8,0.5,5.5,1,8.4,0.5c0.7-0.1,1.6-0.1,1.8,0.7c0.3,0.9-0.5,1.2-1.1,1.6c-2,1.4-4.2,2.5-6.5,3.4
				c-4.1,1.6-7.6,4.3-11.1,6.8c-1.3,0.9-2.5,1.8-3.8,2.7c-4.4,3.2-9.3,5.1-14.8,4.6c-1.7-0.2-2.4,0.5-2.9,2.1
				c-1.5,4.2-1.9,8.6-2.7,12.9c-0.7,3.6-0.7,7.2-1.2,10.8c0,0.2,0,0.3,0,0.5c-0.3,0.4-0.1,1.2-0.8,1.1c-0.5,0-0.7-0.6-0.8-1.2
				C478.9,241.5,478.9,239.9,478.8,238.3z" style="fill:url(#SVGID_25_)"/>
                <linearGradient id="SVGID_26_" gradientUnits="userSpaceOnUse" x1="481.5876" y1="227.682" x2="531.0582" y2="227.682">
                    <stop offset="0" style="stop-color:#0f305e"/>
                    <stop offset="0.3701" style="stop-color:#091d46"/>
                    <stop offset="1" style="stop-color:#000020"/>
                </linearGradient>
                <path d="M502.3,233.3c-2.8-0.2-6-0.5-9.2-0.6c-4-0.1-6.9,2.1-9.7,4.6c-0.5,0.4-0.8,1.5-1.4,1.1
				c-0.7-0.4-0.2-1.3,0-1.9c3.5-11.3,10.8-17.9,22.9-19.4c4.7-0.6,9.3-0.1,13.8,1.6c2.1,0.8,4.3,1.2,6.4,1.4
				c1.3,0.1,2.6-0.4,3.9-0.6c0.7-0.1,1.6-0.5,2,0.1c0.4,0.7-0.3,1.4-0.6,2.1c-3.2,5.8-8.7,7.9-14.6,9.7
				C511.5,232.7,507.1,233.1,502.3,233.3z" style="fill:url(#SVGID_26_)"/>
                <linearGradient id="SVGID_27_" gradientUnits="userSpaceOnUse" x1="453.1757" y1="206.368" x2="480.0609" y2="206.368">
                    <stop offset="0" style="stop-color:#0f305e"/>
                    <stop offset="0.3701" style="stop-color:#091d46"/>
                    <stop offset="1" style="stop-color:#000020"/>
                </linearGradient>
                <path d="M480.1,203.1c-0.3,3.6-1.1,7-2.5,10.3c-0.4,1-0.4,1.9-0.2,2.8c1.6,7.2,1.4,14.5,0.8,21.8
				c-0.1,0.7-0.1,1.9-1.1,2c-0.9,0-0.7-1.1-0.8-1.8c-0.5-3.7-0.7-7.5-0.7-11.2c0-5.5-0.8-10.9-1.7-16.2c-0.5-3-2.6-5.3-4.8-7.3
				c-1.6-1.5-3.4-2.8-5.2-4.2c-4.3-3.3-6.9-7.7-8.4-12.8c-1.2-3.9-2-7.8-2.3-11.9c-0.1-1.7,0.6-2.1,2.2-1.5c1.5,0.6,2.7,1.5,3.8,2.6
				c1.7,1.6,3.5,3.2,5.4,4.7c2.9,2.2,5.1,5,7.2,7.9c2.1,2.9,4.2,5.8,6.3,8.8C479.3,198.8,479.9,200.9,480.1,203.1z" style="fill:url(#SVGID_27_)"/>
            </g>
        </g>
        <g>
            <g>
                <linearGradient id="SVGID_28_" gradientUnits="userSpaceOnUse" x1="449.6119" y1="262.4659" x2="499.6974" y2="262.4659">
                    <stop offset="0" style="stop-color:#0f305e"/>
                    <stop offset="0.3701" style="stop-color:#091d46"/>
                    <stop offset="1" style="stop-color:#000020"/>
                </linearGradient>
                <path d="M495.8,238.5c-4.4-2.8-9.7,0-14.6,0c-4.5,0-9.5-0.5-14-0.5c-3.6,0-9.4-2.3-12.8-1.2
				c-2.2,0.7-1.9,2.3-2.6,4.3c-2.6,7.3-2.5,15.1-1.2,22.8c0.9,5.4,2.4,11,5.1,15.8c3.2,5.8,4.6,7.9,11.1,8.4
				c4.8,0.4,13.9-0.1,18.7,0.2c5,0.3,8.5-8.2,10.6-13.3c2.6-6.2,3.6-13,3.7-19.7c0.1-3.8-0.3-7.6-0.7-11.4
				C498.6,241.2,497.4,239.6,495.8,238.5z" style="fill:url(#SVGID_28_)"/>
            </g>
        </g>
        <g>
            <linearGradient id="SVGID_29_" gradientUnits="userSpaceOnUse" x1="474.4161" y1="190.4006" x2="494.6645" y2="190.4006">
                <stop offset="0" style="stop-color:#0f305e"/>
                <stop offset="0.3701" style="stop-color:#091d46"/>
                <stop offset="1" style="stop-color:#000020"/>
            </linearGradient>
            <polygon points="476,140.4 474.4,140.7 493.1,240.4 494.7,240.1 		" style="fill:url(#SVGID_29_)"/>
            <linearGradient id="SVGID_30_" gradientUnits="userSpaceOnUse" x1="454.1677" y1="190.4006" x2="474.4161" y2="190.4006">
                <stop offset="0" style="stop-color:#0f305e"/>
                <stop offset="0.3701" style="stop-color:#091d46"/>
                <stop offset="1" style="stop-color:#000020"/>
            </linearGradient>
            <polygon points="454.2,240.1 455.8,240.4 474.4,140.7 472.8,140.4 		" style="fill:url(#SVGID_30_)"/>
        </g>
        <linearGradient id="SVGID_31_" gradientUnits="userSpaceOnUse" x1="471.1727" y1="138.7795" x2="477.6595" y2="138.7795">
            <stop offset="0" style="stop-color:#0f305e"/>
            <stop offset="0.3701" style="stop-color:#091d46"/>
            <stop offset="1" style="stop-color:#000020"/>
        </linearGradient>
        <circle cx="474.4" cy="138.8" r="3.2" style="fill:url(#SVGID_31_)"/>
        <g>
            <g>
                <linearGradient id="SVGID_32_" gradientUnits="userSpaceOnUse" x1="492.642" y1="225.7386" x2="492.642" y2="298.8886">
                    <stop offset="0" style="stop-color:#fff"/>
                    <stop offset="0.3002" style="stop-color:#a6b2c3"/>
                    <stop offset="0.8227" style="stop-color:#0f305e"/>
                    <stop offset="0.995" style="stop-color:#0f305e"/>
                </linearGradient>
                <path d="M495.5,269c0.9,2.1,1.9,4,2.4,6.1c0.1,0.4,0.3,0.7,0.7,1c2.8,1.9,3.4,4.9,3.4,8c0,1.2,0,2.4-0.4,3.5
				c-0.2,0.6-0.5,0.9-1.1,0.9c-0.5,0-1-0.2-1.2-0.8c-0.3-0.7-0.7-1.4-1-2.1c-0.4,1.1-0.7,2.1-1.1,3c-0.3,0.7,0.1,1.1,0.4,1.5
				c1.7,2.9,1.8,6,1.2,9.2c-0.1,0.6-0.3,1.1-1,1.2c-0.7,0.1-1.2-0.3-1.5-0.9c-0.7-1.2-1-2.6-1.2-4c-0.6,1.8-0.4,3.7-0.2,5.6
				c0.2,2.2,1.2,4.4,1.1,6.6c0,0.6-0.1,1.1-0.2,1.7c-0.1,0.4-0.2,0.8-0.8,0.8c-0.4,0-0.7-0.2-0.8-0.6c-0.8-1.8-1.5-3.7-2.3-5.5
				c-0.4-0.9-0.2-1.9,0.4-2.5c1.2-1.1,0.9-2.3,0.9-3.6c0-0.7,0.1-1.3,0.2-2c-1.6,0.9-2.4,0.6-2.7-1.3c-0.4-2.9,1.5-6.7,4.4-8
				c1.3-0.6,1.8-1.3,1.9-2.5c0.4-4,0.1-7.8-1.6-11.6c-0.2,2.9-1.2,5.4-3.1,7.6c-0.3,0.3-0.6,0.7-1,0.9c-0.7,0.4-1.3,0.2-1.3-0.6
				c0.1-3.4-0.2-7,2.2-9.7c1.4-1.6,1.1-2.4,0.1-3.8c-1.1-1.7-2-3.6-2.5-5.9c-1,2.1-2.6,3.5-3.8,5.2c-0.6,0.9-1.2,2.1-2.4,1.8
				c-1.1-0.3-0.8-1.7-0.8-2.6c0.1-2.3,0.3-4.5,1.4-6.6c1.1-2.1,2.7-3.3,5-3.7c0.6-0.1,0.7-0.3,0.8-0.9c0.2-1.6,0.5-3.2,0.8-5
				c-1.6,1.4-3.2,2.7-4.8,3.8c-0.4,0.3-0.9,0.5-1.3,0.8c-0.5,0.3-1,0.6-1.6,0.1c-0.6-0.5-0.3-1.1,0-1.7c1.1-2.4,2.3-4.7,4.3-6.5
				c0.6-0.6,1.2-1.1,2.1-1.2c1.2-0.2,1.4-1,1-2c-1-3-3.5-4.1-6.1-5.1c-0.3-0.1-0.6-0.1-0.9-0.2c-0.4-0.2-1.2,0.3-1.2-0.6
				c0-0.8,0.7-0.9,1.2-1.2c1-0.5,1.9-0.1,2.7,0.1c2.9,0.8,5.6,2,6.7,5.3c0.2,0.6,0.2,1.1,0.2,1.7c0,1.6,0,3.1,1.8,4.2
				c1.9,1.1,2.6,3.4,3,5.5c0.3,1.4,0.6,2.8,0.7,4.2c0.2,1.6-0.7,2.2-2.2,1.6c-2.2-0.8-4.1-4.3-3.7-6.6c0-0.2,0-0.4-0.2-0.6
				c-1.1,3.6-2.5,7.2-1.2,11.1c0.2,0.7,0.7,0.9,1.4,0.9c1.2,0,2.3,0,3.5,0.2c3.8,0.8,5.6,3.4,6.5,6.8c0.2,0.7,0,1.2-0.5,1.6
				c-0.5,0.5-1,0.2-1.5-0.1C499,270.9,497.3,269.9,495.5,269z" style="fill:url(#SVGID_32_)"/>
                <linearGradient id="SVGID_33_" gradientUnits="userSpaceOnUse" x1="457.1543" y1="225.7386" x2="457.1543" y2="298.8886">
                    <stop offset="0" style="stop-color:#fff"/>
                    <stop offset="0.3002" style="stop-color:#a6b2c3"/>
                    <stop offset="0.8227" style="stop-color:#0f305e"/>
                    <stop offset="0.995" style="stop-color:#0f305e"/>
                </linearGradient>
                <path d="M453.3,266.4c-0.9,2-2.4,3.1-4.2,3.9c-1.1,0.5-1.7,0.2-1.6-1.1c0.4-3.3,1.6-6.2,4.5-8
				c1.1-0.7,1.3-1.4,1-2.4c-0.2-0.7-0.1-1.4-0.2-2.1c-0.4,0-0.5,0.2-0.7,0.4c-0.4,0.4-0.7,0.8-1.3,0.5c-0.5-0.2-0.8-0.7-0.7-1.3
				c0.5-3.3,0.1-6.8,1.2-10.1c0.5-1.4,1.2-2.6,2.8-3.3c1-0.5,1.7-1.7,2.5-2.7c1.6-2,3.8-3.1,6.2-3.7c1.5-0.4,2.9,0.2,4,1.3
				c-0.1,0.6-0.5,0.2-0.7,0.2c-1,0.3-2.2,0.3-2.8,0.9c-0.7,0.7,0.2,1.8,0.3,2.8c0.3,2.8,0.4,5.5-0.7,8.2c-0.2,0.4-0.3,0.8-0.5,1.1
				c-0.3,0.5-0.8,0.8-1.4,0.7c-0.6-0.1-0.8-0.5-1-1.1c-0.9-2.5-0.7-5-0.4-7.5c0.1-0.9,0-2,0.6-3c-1.8,0.9-2.6,2.4-3.7,3.5
				c-0.3,0.3,0,0.8,0.1,1.2c0.8,3.1,2,6.2,2.1,9.5c0,0.8,0.1,1.6-0.7,2c-0.9,0.4-1.4-0.4-1.9-0.9c-0.5-0.6-0.8-1.3-1.2-2
				c-0.9,1.7-0.5,3.7,0.8,4.7c2.8,2.1,4,5.1,4.3,8.5c0.1,1.3,0,2.7,0,4c0,0.4,0.2,0.8-0.3,1.1c-0.6,0.3-1,0-1.4-0.4
				c-0.9-1-1.9-2-3.2-3.4c0.4,2.5-1.1,4.6,0.3,6.8c1.6,2.7,0.9,5.7,0.5,8.6c-0.1,0.9-0.3,1.7-0.5,2.5c-0.1,0.3-0.2,0.7-0.7,0.7
				c-0.4,0-0.5-0.3-0.5-0.6c-0.6-3.5-1.2-7-1.8-10.5c-0.1-0.4-0.1-1,0.1-1.4C454.2,271.9,453.2,269.1,453.3,266.4z" style="fill:url(#SVGID_33_)"/>
                <linearGradient id="SVGID_34_" gradientUnits="userSpaceOnUse" x1="472.7079" y1="225.7386" x2="472.7079" y2="298.8884">
                    <stop offset="0" style="stop-color:#fff"/>
                    <stop offset="0.3002" style="stop-color:#a6b2c3"/>
                    <stop offset="0.8227" style="stop-color:#0f305e"/>
                    <stop offset="0.995" style="stop-color:#0f305e"/>
                </linearGradient>
                <path d="M473.2,252.2c0.1,1.7-0.2,3.5,0.4,5.1c0.6,1.7,0.2,3.5,0.2,5.2c0,1.1,0.2,1.7,1.3,2.2
				c2.8,1.6,3.3,4.4,3.7,7.3c0.1,0.9,0.1,1.9,0,2.8c-0.1,0.7-0.4,1.4-1.1,1.7c-0.7,0.3-1.1-0.4-1.5-0.8c-1.4-1.4-1.8-3.3-2.6-5
				c-0.3,1.3-0.7,2.7,0,3.8c1.5,2.1,1.9,4.4,1.9,7c0,0.8,0.2,1.6,0.2,2.5c0,0.4-0.1,0.9-0.6,1.2c-0.5,0.2-0.9-0.1-1-0.4
				c-1.2-2.6-3.1-4.9-2.6-8c0.1-0.4-0.1-0.9,0.3-1.2c1.3-1.1,0.8-2.6,1-4c0.3-2.6,0.3-5.2,0.3-7.8c0-0.2-0.1-0.4-0.1-0.8
				c-1.4,2.2-3.3,3.7-5.4,4.7c-1.5,0.7-2.2,0.2-2.2-1.4c0-3.3,2.5-7.9,5.3-8.6c2.2-0.5,2.2-1.5,1.9-3.1c-0.5-2.3-0.3-4.6-0.3-7.3
				c-1.1,1.8-2.1,3.2-3.3,4.4c-0.6,0.6-1.2,1.2-2.2,0.8c-0.9-0.4-0.8-1.3-0.8-2c-0.1-3.4,2-6.4,5.3-7.8c1.1-0.5,2-1,2.5-2.2
				c0.8-1.5,2-2.8,3.4-3.7c0.5-0.3,1-0.4,1.6-0.4c0.6,0,0.9,0.4,1,0.8c0.1,0.5-0.3,0.8-0.6,0.9c-3.1,1.4-4.2,4.2-4.9,7.2
				c-0.1,0.3-0.2,0.5,0.2,0.7c5.2,2,5.7,6.4,5.8,11.1c0,0.9,0,1.9-0.1,2.8c-0.1,0.6-0.3,1.4-1,1.6c-0.9,0.2-1.1-0.6-1.3-1.2
				C476.5,257.4,474.5,255.1,473.2,252.2z" style="fill:url(#SVGID_34_)"/>
            </g>
        </g>
    </g>
    <linearGradient id="SVGID_35_" gradientUnits="userSpaceOnUse" x1="281.6154" y1="254.2736" x2="66.5495" y2="260.5586">
        <stop offset="0" style="stop-color:#fff"/>
        <stop offset="0.624" style="stop-color:#667b98"/>
        <stop offset="0.995" style="stop-color:#0f305e"/>
    </linearGradient>
    <polygon points="266.3,357.7 181.4,415.2 181.4,99.2 267.3,135.1 " style="fill:url(#SVGID_35_)"/>
    <g>
        <g>
            <path d="M252.8,250.7l-15.7-29.3c-0.5-1-0.2-2.2,0.8-2.7l14.1-7.5c1-0.5,2.2-0.1,2.7,0.9l15.7,29.3
			c0.5,1,0.2,2.2-0.8,2.7l-14.1,7.5C254.6,252.1,253.4,251.7,252.8,250.7z" style="fill:#3f3f3f;stroke:#dfdfdf;stroke-width:.5285;stroke-miterlimit:10"/>
        </g>
        <g>
            <path d="M252.9,250.3l-15.4-28.8c-0.5-1-0.2-2.2,0.7-2.7l13.7-7.3c0.9-0.5,2.1-0.1,2.6,0.9l15.4,28.8
			c0.5,1,0.2,2.2-0.7,2.7l-13.7,7.3C254.6,251.7,253.5,251.3,252.9,250.3z" style="fill:#3f3f3f;stroke:#3f3f3f;stroke-width:.5169;stroke-miterlimit:10"/>
        </g>
        <g>
            <path class="st37" d="M252.9,250.3l-15.4-28.8c-0.5-1-0.2-2.2,0.7-2.7l13.7-7.3c0.9-0.5,2.1-0.1,2.6,0.9l15.4,28.8
			c0.5,1,0.2,2.2-0.7,2.7l-13.7,7.3C254.6,251.7,253.5,251.3,252.9,250.3z M238.5,219.3c-0.7,0.4-0.9,1.2-0.5,1.9l15.4,28.8
			c0.4,0.7,1.2,1,1.9,0.6l13.7-7.3c0.7-0.4,0.9-1.2,0.5-1.9l-15.4-28.8c-0.4-0.7-1.2-1-1.9-0.6L238.5,219.3z"/>
        </g>
        <line class="st38" x1="255.2" y1="214" x2="238.6" y2="222.9"/>
        <line class="st38" x1="268.7" y1="239.4" x2="252.1" y2="248.3"/>
        <g>
            <path class="st37" d="M252.9,250.3l-15.4-28.8c-0.5-1-0.2-2.2,0.7-2.7l13.7-7.3c0.9-0.5,2.1-0.1,2.6,0.9l15.4,28.8
			c0.5,1,0.2,2.2-0.7,2.7l-13.7,7.3C254.6,251.7,253.5,251.3,252.9,250.3z"/>
        </g>
        <linearGradient id="SVGID_36_" gradientUnits="userSpaceOnUse" x1="2468.1824" y1="205.979" x2="2516.436" y2="250.5031" gradientTransform="matrix(-0.8818 0.4716 0.4716 0.8818 2344.5979 -1148.6742)">
            <stop offset="0" style="stop-color:#0ff"/>
            <stop offset="1" style="stop-color:#0f305e"/>
        </linearGradient>
        <polygon points="252,247.9 268.6,239 255.2,214 238.6,222.9 	" style="fill:url(#SVGID_36_)"/>
        <rect x="237.7" y="218.4" transform="matrix(-0.8818 0.4716 -0.4716 -0.8818 568.2982 295.4131)" width="18.9" height="1.1" style="fill:#0f305e"/>
        <path class="st41" d="M246.4,219.4l1.6-0.8c0.1,0,0.1-0.1,0.1-0.2l0,0c0-0.1-0.1-0.1-0.2-0.1l-1.6,0.8c-0.1,0-0.1,0.1-0.1,0.2l0,0
		C246.3,219.4,246.4,219.5,246.4,219.4z"/>
        <path class="st41" d="M254.8,214.9L254.8,214.9c0.1,0,0.1-0.1,0.1-0.2l0,0c0-0.1-0.1-0.1-0.2-0.1l0,0c-0.1,0-0.1,0.1-0.1,0.2l0,0
		C254.7,215,254.8,215,254.8,214.9z"/>
        <path class="st41" d="M254.2,215.3L254.2,215.3c0.1,0,0.1-0.1,0.1-0.2l0,0c0-0.1-0.1-0.1-0.2-0.1l0,0c-0.1,0-0.1,0.1-0.1,0.2l0,0
		C254.1,215.3,254.1,215.3,254.2,215.3z"/>
        <path class="st41" d="M253.6,215.6L253.6,215.6c0.1,0,0.1-0.1,0.1-0.2l0,0c0-0.1-0.1-0.1-0.2-0.1l0,0c-0.1,0-0.1,0.1-0.1,0.2l0,0
		C253.4,215.6,253.5,215.6,253.6,215.6z"/>
        <path class="st41" d="M239.3,223.2L239.3,223.2c0.1,0,0.1-0.1,0.1-0.2l0,0c0-0.1-0.1-0.1-0.2-0.1l0,0c-0.1,0-0.1,0.1-0.1,0.2l0,0
		C239.2,223.2,239.3,223.3,239.3,223.2z"/>
        <path d="M252,211.5c0.9-0.5,2.1-0.1,2.6,0.9l12,22.4l-27.9-16.2L252,211.5z" style="opacity:.3;fill:#fff"/>
        <path class="st37" d="M245.5,216.5c0.1,0.1,0.2,0.2,0.4,0.1c0.1-0.1,0.2-0.2,0.1-0.4c-0.1-0.1-0.2-0.2-0.4-0.1
		C245.5,216.1,245.4,216.3,245.5,216.5z"/>
    </g>
    <linearGradient id="SVGID_37_" gradientUnits="userSpaceOnUse" x1="280.4083" y1="256.1295" x2="-73.6204" y2="266.4754">
        <stop offset="0" style="stop-color:#0f305e"/>
        <stop offset="0.3701" style="stop-color:#091d46"/>
        <stop offset="1" style="stop-color:#000020"/>
    </linearGradient>
    <path d="M270.2,129.9l-94.6-38.1l0.1,11.6l-0.1,323.2l94-67.7L270.2,129.9z M228.1,121.5v130.4l-42.8,6.4V106.7
	L228.1,121.5z M228.1,260v120.9l-42.8,28.3V269.3L228.1,260z M263.7,357.6l-29.8,19.5V258.7l29.8-6.5V357.6z M263.7,246.5l-29.8,4.5
	V123.5l29.1,10.9L263.7,246.5z" style="fill:url(#SVGID_37_)"/>
    <g>
        <path class="st44" d="M330.2,487.8c0.2-0.2,0.3-0.6,0.3-1c0-0.7-0.1-1.5-0.1-2.2c0-1.3,0-2.6-0.3-4c-0.5-3.3-0.4-6.6-0.3-9.9l0-0.6
		c0.1-4,0.7-7.9,1.3-11.8c0.2-1.2,0.3-2.5,0.5-3.7c1.3-9.8,1.9-17.9,0.7-26.2c-0.1-1-0.3-2.1-0.5-3.1l0-0.1
		c-0.4-1.8-0.7-3.6-1.6-5.2c-1.9-3.6-3.1-7.2-3.6-11.1c-0.2-1.2-0.3-2.4-0.3-3.6c-0.2-4.4-0.3-9.1,0.1-13.8
		c0.3-3.8,0.8-7.7,1.3-11.4c0.5-3.4,0.9-7,1.2-10.5c0.9-10.5,3-20.7,4.9-29.4c0.5-2.4,0.9-5,1.1-8.2l0,0l0,0
		c-0.1-0.7-0.3-1.1-0.7-1.6c-1.3-1.5-2.9-2.7-5-3.7c-2.1-1-4.4-1.5-6.6-1.9c-1.1-0.2-2.2-0.5-3.3-0.8l-0.7-0.2
		c-2.4-0.7-5-1.4-7.5-1.7c-1.6-0.2-3.1,0-4.6,0.2c-0.3,0-0.6,0.1-0.8,0.1c-4.5,0.6-7,2.7-7.9,6.6c-1.4,5.9-1.6,12.1-0.8,18.9
		c0.2,1.5,0.4,3.2,0.7,5c0.4,2.5,0.7,4.9,1.1,7.3c0.3,1.9,0.6,3.9,0.9,5.8c0.2,1,0.3,2,0.5,3c0.2,1.4,0.4,2.7,0.6,4.1
		c0.2,1.6,0.4,2.9,0.5,4.2c0.3,2.5,0.5,5,0.7,7.5c0.2,2.9,0.5,6,0.8,8.9l0.3,2.5c0.4,3.8,0.9,7.7,1.5,11.5c0.3,1.8,0.5,3.5,0.8,5.1
		c0.2,1.2,0.5,2.4,1,3.6c1.3,2.7,2.1,5.7,2.7,8.5c0.4,1.5,0.7,3,1.2,4.5c0.5,1.6,0.9,3.4,1.2,5.6c0.2,1.3,0.3,2.6,0.5,3.8
		c0.1,1.3,0.3,2.6,0.5,3.8c0.2,1.4,0.4,2.5,0.7,3.6c0.3,1.3,0.4,2.7,0.4,4.6c0,3.2,0.3,6.5,0.5,9.6c0.1,1.7,0.3,3.5,0.4,5.2
		c0.3,4.5,0.4,8.5,0.6,12.2c0.1,3.5-0.1,6.7-0.5,9.8c0,0.2,0,0.4,0,0.5c0,0.3,0.2,0.6,0.9,0.6c1.2-0.1,2.4-0.1,3.6-0.2
		c0.7,0,1.4-0.1,2.1-0.1c0.8,0,1.6-0.1,2.5-0.2c1.8-0.1,3.6-0.2,5.5-0.3C329.6,488.2,329.9,488,330.2,487.8z"/>
        <path class="st44" d="M320.2,491.1c0.3,0,0.7-0.1,1-0.2c1.9-0.3,2-0.4,2-2.3l0-0.2c0-0.8,0-1.7,0-2.5c0-6.2,0-12.5,0.8-18.8
		c0.3-2.3,0.8-4.6,1.2-6.9c0.5-2.4,1-5,1.3-7.5c0.1-0.7,0.2-1.4,0.2-2.2c0.5-4.8,1.1-9.8,0.4-14.7c-0.1-0.7-0.2-1.5-0.4-2.2
		c-1-4.4-2.3-9.2-4-15.1c-2-6.9-2.5-14-1.4-21.2c1.3-8.9,2.4-17.9,3.4-26.6l0.5-4c1.1-9.5,2.7-17.6,4.7-24.9c0.6-2,1.3-3.5,2.2-4.8
		c1.4-1.9,3.2-3.6,5-5.2l0.6-0.6c6.8-6.3,9.6-13.7,8.6-22.6c-0.5-4.4-1.6-8.5-3.3-12.4c-0.5-1.2-1.1-2.3-1.6-3.5
		c-1.3-2.6-2.6-5.3-3.3-8.2c-0.6-2.1-0.8-2.1-2.8-1.9l-4.1,0.5c-11.2,1.5-22.9,3-34.4,4.2c-3.1,0.3-1.9-1.6-1.8,1.1l-0.4,2.7
		c0,1.9-0.7,3.7-0.5,5.6c0.2,2.9,0.4,5.9,0.3,8.9c0,0.4,0,0.9-0.1,1.3c-0.2,3.4-0.3,7-1.3,10.3c-1.6,5-2,10-2.5,16
		c-0.2,2-0.1,4.1,0,6.1c0.1,1.5,0.1,3.1,0.1,4.6c-0.1,4.5-0.1,9,0.2,13.1l0.2,2.5c0.2,2.6,0.3,5.2,0.5,7.7c0.1,2.3,0.2,4.7,0.3,6.9
		c0.1,2.1,0.1,4.3,0.2,6.5c0.3,5.8,0.3,11.5,0.3,17.9c0,2.3,0,4.9,0.4,7.6c0.2,1.5,0.5,2.8,0.9,4c0.1,0.3,0.2,0.7,0.3,1
		c0.4,1.4,0.9,2.9,1.1,4.4c0.2,2.4,0.6,4.9,1,8c0.3,1.8,0.5,3.7,0.8,5.5c0.4,2.7,0.8,5.5,1.2,8.2c0.8,6.1,2.1,12.2,3.4,18.1l0.6,2.6
		c0.6,3,1.3,6,1.8,9.1c0.5,2.9,0.5,5.9,0.6,8.8c0,1.1,0,2.1,0,3.2c0.1,2.7,0,5.4-0.1,8c0,1,0,1.9-0.1,2.9c0,0.2,0,0.4,0,0.5
		c0.1,0.6,0.5,0.9,1.2,0.9c4.4,0.1,9.3,0.3,14.1-0.4L320.2,491.1z"/>
    </g>
    <g>
        <path class="st45" d="M306.8,263.8c-0.5,0-1-0.1-1.5-0.1c-0.6-0.1-1.1-0.1-1.7-0.3c-0.6-0.1-1.2-0.3-1.8-0.5
		c-0.6-0.2-1.1-0.5-1.6-0.7c-2.1-1-4.1-2.1-6.1-3.4c-1.9-1.2-3.7-2.6-5.4-4.1c-1.3-1.2-2.6-2.4-3.9-3.6c-0.8-0.6-1.6-1.3-2.5-1.8
		c-1.6-1-3.4-1.9-5.1-2.8c-1.7-0.9-3.4-1.8-5.1-2.6c-1.6-0.7-3.2-1.3-4.8-1.8c-1-0.3-2.1-0.6-3.2-0.8c-1.1-0.2-2.2-0.4-3.3-0.6
		c-2.1-0.4-11.9-2.8-12.3-3c-0.9-0.5-1.4-1.5-1.8-2.3c-0.2-0.4-0.4-0.9-0.5-1.4c-0.1-0.5-0.1-1.1-0.1-1.7c0-0.5,0.1-1,0.3-1.5
		c0.1-0.5,0.3-1,0.6-1.5c0.5-0.9,1.1-1.8,1.9-2.5c0.8-0.8,1.7-1.4,2.7-2c0.8-0.4,1.7-0.8,2.5-1c1-0.2,2-0.2,3,0
		c0.9,0.2,1.9,0.4,2.8,0.6c1.1,0.3,2.2,0.6,3.3,1c0.5,0.2,1,0.3,1.6,0.5c0.5,0.2,1.1,0.4,1.6,0.6c1,0.4,1.9,0.8,2.9,1.2
		c1.1,0.4,2.1,0.9,3.1,1.4c1,0.5,2,1,3,1.6c0.9,0.5,1.8,1,2.6,1.5c1,0.5,2,1,3,1.5c0.9,0.5,1.8,1,2.7,1.5c0.8,0.5,1.6,0.9,2.4,1.4
		c1.8,1,3.6,1.9,5.4,2.8c0.2,0.1,0.4,0.2,0.6,0.3c-0.1,0-0.1,0-0.2-0.1c1,0.4,2,0.9,3,1.3c0.8,0.3,1.7,0.6,2.5,0.8
		c1.3,0.4,2.5,0.7,3.8,1.1c1.4,0.4,2.8,0.7,4.2,1c0.8,0.2,1.6,0.3,2.4,0.5c0.9,0.2,1.8,0.4,2.6,0.5c0.3,0,0.5,0.1,0.8,0.1
		c0.2,0,0.4,0.1,0.7,0.1c0.3,0.1,0.7,0.1,1,0.1c0.3,0,0.6,0,0.9,0.1c0.3,0,0.7,0.1,1,0.2c0.6,0.2,1.1,0.5,1.6,0.8
		c0.4,0.3,0.8,0.7,1.1,1.1c0.4,0.4,0.7,0.9,1,1.4c0.3,0.5,0.5,1.1,0.6,1.6c0.2,0.5,0.3,1,0.3,1.6c0.2,1.1,0.2,2.2,0,3.3
		c-0.2,1.1-0.6,2.2-1.1,3.2c-0.5,1-1.2,1.9-2.1,2.7c-0.8,0.7-1.7,1.4-2.7,1.8c-0.6,0.2-1.2,0.4-1.8,0.6c-0.5,0.1-1,0.2-1.6,0.3
		c-0.7,0.1-1.5,0.1-2.2,0.1C307.6,263.8,307.2,263.8,306.8,263.8z"/>
    </g>
    <g>
        <path class="st45" d="M291.1,137C291.1,137,291.1,137,291.1,137c0.1-0.1,0.2-0.1,0.2-0.2C291.2,136.9,291.2,136.9,291.1,137z
		 M289.7,142.6L289.7,142.6L289.7,142.6c0.1-0.3,0.1-0.7,0.2-1.1C289.8,141.9,289.8,142.2,289.7,142.6z M339.2,204.9
		c-0.1-0.4-0.2-0.9-0.3-1.3l0,0C339,204,339.1,204.4,339.2,204.9z M340.2,218.3c0-0.4,0-0.9,0-1.3l0,0l0-0.1
		C340.3,217.4,340.3,217.8,340.2,218.3z M291.5,227.2L291.5,227.2L291.5,227.2c0-0.1,0.1-0.3,0.1-0.5
		C291.6,226.8,291.6,227,291.5,227.2z M291.3,236.4L291.3,236.4c0-0.3-0.1-0.6-0.1-0.9C291.2,235.7,291.2,236,291.3,236.4
		L291.3,236.4C291.3,236.3,291.3,236.3,291.3,236.4C291.3,236.3,291.3,236.3,291.3,236.4z M310.9,302.7c-1.3,0-2.5-0.1-3.8-0.1
		c-1.2-0.1-2.4-0.1-3.6-0.3c-1.2-0.1-2.4-0.3-3.6-0.6c-0.6-0.2-1.2-0.4-1.8-0.6c-0.6-0.3-1.2-0.7-1.7-1.2c-0.3-0.4-0.6-0.8-0.7-1.3
		c-0.1-0.3-0.1-0.6-0.1-0.9c0-0.3,0.1-0.7,0.3-1c0.1-0.2,0.2-0.4,0.3-0.6c0.1-0.1,0.1-0.2,0.2-0.2c-0.5-0.1-0.9-0.4-0.9-0.9
		c-0.1-0.6-0.1-1.2-0.2-1.8c0-0.5-0.1-1-0.1-1.5c0-1.1,0-2.2,0-3.3c0,0,0,0,0,0c0,0,0,0,0,0c0,0,0-0.1,0-0.1c0,0,0,0,0,0
		c0.1-2.4,0.3-4.8,0.3-7.2c0-0.8,0-1.7,0-2.5c0-1-0.1-1.9-0.2-2.9c-0.1-1.9-0.3-3.8-0.5-5.7c-0.2-2.2-0.4-4.3-0.6-6.5c0,0,0,0,0,0
		c-0.1-0.9-0.2-1.8-0.4-2.8c-0.2-1-0.4-2-0.6-3c-0.4-1.9-0.8-3.7-1.3-5.6c-0.2-0.9-0.5-1.9-0.6-2.8c-0.2-1-0.4-2-0.5-2.9
		c-0.3-2-0.7-4-1-6c-0.1-1-0.3-1.9-0.4-2.9c0-0.3-0.1-0.7-0.1-1c-0.2-0.6-0.3-1.3-0.4-2c0-0.4-0.1-0.7-0.1-1.1c0-0.3,0-0.7,0-1
		c0-0.7,0-1.4,0.1-2c0-0.1,0-0.2,0-0.3c0.1-0.2,0.1-0.4,0.2-0.6c0.2-0.5,0.3-0.9,0.5-1.4c0.3-1,0.6-1.9,0.9-2.9c0,0,0,0,0,0
		c0,0,0,0,0-0.1c0,0,0,0,0,0c0,0,0-0.1,0-0.1c0,0,0,0,0,0c0,0,0,0,0,0c0,0,0,0,0,0c0,0,0,0,0-0.1c0,0,0,0,0,0.1
		c0.2-0.5,0.3-1,0.5-1.6c0.2-0.1,0.4-0.2,0.4-0.5c0-0.2,0-0.3-0.1-0.5c0-0.1,0-0.1,0.1-0.2c0.1-0.3,0.3-0.7,0.4-1
		c0.1-0.2,0.3-0.5,0.4-0.7c0.7-1,1.3-2,2-3c0.7-1,1.4-2.1,2-3.1c0.4-0.7,0.9-1.4,1.3-2c0.2-0.3,0.4-0.5,0.6-0.8
		c0.2-0.3,0.4-0.5,0.7-0.8c0,0,0,0.1-0.1,0.1c0.2-0.3,0.4-0.5,0.6-0.8c0.5-0.6,1-1.2,1.5-1.9c0,0,0,0.1-0.1,0.1
		c0.8-1,1.6-2.1,2.4-3.2c0.4-0.5,0.8-1.1,1.2-1.6c0.4-0.6,0.8-1.1,1.2-1.7c0.6-0.9,1.2-1.7,1.8-2.6c0.6-0.8,1.2-1.5,1.8-2.3
		c0,0,0,0,0,0c0,0,0,0,0,0c0,0,0,0,0,0c0,0,0,0,0,0c0.4-0.6,0.9-1.1,1.2-1.7c0.3-0.5,0.6-1.1,0.9-1.6c0.2-0.4,0.3-0.8,0.4-1.1
		c0.1-0.4,0.2-0.9,0.3-1.3c0.1-0.5,0.1-0.9,0.1-1.4c0-0.4,0-0.8-0.1-1.2c-0.1-0.5-0.1-0.9-0.2-1.4c-0.1-0.3-0.2-0.7-0.3-1
		c-0.1-0.3-0.2-0.7-0.4-1c-0.2-0.6-0.5-1.1-0.7-1.6c-0.2-0.5-0.5-1.1-0.7-1.6c-0.3-0.6-0.6-1.3-0.9-1.9c-0.2-0.3-0.3-0.6-0.4-1
		c0,0,0-0.1,0-0.1c-0.3,0.2-0.5,0.4-0.8,0.6c-0.8,0.5-1.6,1.1-2.4,1.5c-0.8,0.4-1.6,0.8-2.5,1c-0.8,0.3-1.7,0.5-2.5,0.6
		c-0.4,0.1-0.9,0.1-1.4,0.1c-0.5,0-1.1-0.1-1.5-0.3c-0.6-0.2-1.1-0.6-1.5-1c-0.3-0.3-0.5-0.6-0.7-0.9c-0.6-0.8-1.2-1.7-1.7-2.6
		c-0.1-0.1-0.1-0.2-0.2-0.3c-0.2-0.4-0.5-0.8-0.7-1.2c-0.2-0.2-0.3-0.4-0.5-0.7c-0.2-0.2-0.3-0.4-0.5-0.6c-0.4-0.4-0.9-0.8-1.3-1.1
		c0,0,0,0,0,0c-0.4-0.3-0.8-0.6-1.2-1c-0.2-0.3-0.5-0.6-0.6-0.9c-0.5-0.8-0.7-1.7-0.7-2.6c0-0.5,0-1.1,0.1-1.6
		c0-0.4,0.1-0.9,0.2-1.3c0.2-0.9,0.4-1.8,0.6-2.7c0.1-0.4,0.2-0.9,0.3-1.3c0.1-0.5,0.2-0.9,0.3-1.4c0.1-0.4,0.1-0.8,0.1-1.2
		c0-0.3,0-0.6,0-0.9c0-0.4-0.1-0.8-0.2-1.2c-0.1-0.3-0.2-0.6-0.3-0.8c-0.1-0.3-0.3-0.6-0.5-1c-0.1-0.2-0.3-0.4-0.4-0.7
		c-0.4-0.6-0.9-1.2-1.2-1.8c-0.3-0.6-0.6-1.2-0.7-1.9c-0.1-0.6-0.1-1.1-0.1-1.7c0-0.7,0-1.4,0.1-2.1c0.1-1.6,0.2-3.2,0.3-4.8
		c0.1-0.9,0.1-1.7,0.2-2.5c0.1-0.9,0.3-1.8,0.5-2.7c0.5-1.6,1.3-3.3,2.7-4.3c0.2-0.2,0.4-0.3,0.7-0.4c0.2-0.3,0.5-0.6,0.7-0.8
		c1.4-1.6,3.2-2.9,5.1-3.9c0.9-0.5,2-0.8,3-1.1c1.1-0.3,2.2-0.5,3.3-0.6c2.1-0.2,4.2-0.2,6.3-0.1c1,0,2,0.1,2.9,0.2
		c1.1,0.1,2.1,0.3,3.2,0.6c1.1,0.3,2.1,0.8,3.1,1.4c0.9,0.6,1.7,1.2,2.5,1.9c1.6,1.4,3,3,4.1,4.9c1,1.8,1.9,3.6,2.4,5.6
		c0.3,1,0.4,2.1,0.6,3.1c0.2,2,0.3,3.9,0.5,5.9c0.1,1,0.2,1.9,0.2,2.9c0.1,1.1-0.1,2.1-0.3,3.2c-0.2,0.9-0.4,1.7-0.7,2.5
		c-0.3,0.8-0.5,1.6-0.8,2.3c-0.3,1.1-0.6,2.2-0.7,3.4c0,0,0-0.1,0-0.1c-0.2,1.4-0.4,2.9-0.4,4.3c0,0.7,0,1.3,0.1,2
		c0.1,0.5,0.1,0.9,0.2,1.4c0.1,0.4,0.2,0.8,0.4,1.1c0.2,0.6,0.5,1.2,0.8,1.7c0.5,0.9,1.1,1.7,1.6,2.6c0.4,0.8,0.8,1.7,1.3,2.6
		c0.4,0.8,0.9,1.5,1.4,2.3c0.5,0.8,1,1.5,1.5,2.3c0.4,0.7,0.9,1.4,1.3,2.1c0.4,0.8,0.9,1.5,1.3,2.3c0.6,1.1,1.1,2.2,1.5,3.3
		c0.2,0.6,0.5,1.2,0.7,1.8c0.2,0.5,0.4,1.1,0.6,1.6c0.2,0.5,0.4,0.9,0.6,1.3c0.2,0.3,0.3,0.7,0.4,1c0.1,0.4,0.2,0.7,0.3,1.1
		c0.1,0.5,0.3,1,0.5,1.4c0.1,0.3,0,0.7-0.2,0.9c0.6,1.8,1.1,3.6,1.5,5.5c0.4,2,0.6,4.1,0.8,6.2c0,1,0.1,2,0.1,2.9c0,1,0,2,0,3
		c0,1.7-0.1,3.4-0.2,5.1c-0.1,1.6-0.3,3.2-0.6,4.8c0,0,0-0.1,0-0.1c-0.3,2-0.7,4-1.1,6.1c-0.4,1.9-0.8,3.8-1.1,5.8
		c-0.4,1.9-0.8,3.7-1.1,5.6c-0.4,1.8-0.7,3.7-1,5.5c-0.4,2-0.7,4-1,6c0,0,0-0.1,0-0.1c-0.3,1.7-0.5,3.5-0.7,5.3
		c-0.2,1.8-0.3,3.6-0.4,5.5v0c0,0,0,0,0,0.1c0,0,0,0,0-0.1c0,1,0,2.1,0.1,3.1c0,1,0.1,2.1,0.2,3.1c0.1,1,0.3,2.1,0.4,3.1
		c0.2,1.1,0.4,2.2,0.7,3.4c0.2,0.9,0.5,1.8,0.7,2.7c0.3,0.9,0.6,1.8,0.9,2.7c0.6,1.8,1.3,3.5,1.8,5.3c0,0,0,0,0,0.1
		c0.5,0.2,0.9,0.5,1.1,1c0.2,0.5,0.3,1,0.2,1.6c-0.1,0.3-0.2,0.5-0.3,0.8c-0.1,0.3-0.3,0.6-0.5,0.9c-0.3,0.3-0.5,0.7-0.8,1
		c-0.2,0.2-0.4,0.4-0.6,0.5c-0.2,0.2-0.5,0.3-0.7,0.5c-0.2,0.1-0.4,0.3-0.6,0.4c-0.3,0.2-0.5,0.3-0.8,0.5c-0.2,0.1-0.4,0.2-0.7,0.3
		c-0.3,0.1-0.6,0.3-1,0.4c-0.5,0.2-0.9,0.3-1.4,0.5c-0.6,0.2-1.2,0.3-1.8,0.5c-1.1,0.2-2.2,0.4-3.2,0.6c-1.2,0.2-2.4,0.3-3.6,0.4
		c-2.3,0.2-4.6,0.3-6.9,0.5c-2,0.1-4.1,0.2-6.1,0.2C311.6,302.8,311.3,302.7,310.9,302.7z"/>
    </g>
    <g>
        <path d="M344,217.4C344,217.2,344.2,219,344,217.4c0-0.2,0-0.3,0-0.5c0,0.5-0.1-0.7-0.1-0.8c0-0.4-0.2-0.7-0.2-1.1
		c-0.1-0.9-0.2-1.7-0.4-2.5c-0.4-1.6-0.3-3.4-0.8-5.1c-0.5-1.7-0.9-3.5-1.4-5.2c-0.5-1.4-1.2-3-1.6-4.2c-0.2-0.6-0.4-1.4-0.8-2
		c-0.5-0.7-1-1.3-1.6-1.9c-1.3-1.2-2.7-2.3-4.4-2.8c-3.3-1.1-7,0.3-9.4,2.7c-1.3,1.3-2.4,2.6-3.6,4c-1.1,1.4-2.4,2.6-3.4,4.1
		c-2.2,2.9-11.9,14.4-12.1,15c-0.6,1.5-2.8,1.1-4,0.7c-0.8-0.3-1.6-0.7-2.3-1.3c-0.1-0.1-1.8-1.9-1.6-1.9c-0.9,0.2-1.2,1.4-1.6,2.1
		c-1.4,2.3-2.6,4.6-3.8,7c-4.8,9.9-0.8,21-0.1,23.9c0.6,2.6,2.4,5.1,2.7,7.8c0.5,4.8,0.8,10.1,1.1,15.1c0.3,5.1,0.4,10.3,0.4,15.4
		c0,1.2,0,4.8,0,5.5c-0.2,0.5-1.7,7.3-1.2,8.4c1,2,3.5,2.8,5.5,3.1c2.5,0.4,5.1,0.3,7.7,0.4c5,0,10.1,0.1,15-0.4
		c2.6-0.2,5.1-0.8,7.7-1.1c2.4-0.4,4.8-0.8,7.1-1.8c1.8-0.8,4.4-2,5.4-3.8c0.5-0.8,0.5-2-0.1-2.8c-0.3-0.3-3.3-10.1-4.3-13.9
		c-0.6-2.4-1.2-4.8-1.4-7.3c-0.2-2.5,0-5,0.3-7.5c0.3-3.1,0.4-6.3,0.8-9.4c0.4-3.1,1.3-5.9,2.1-8.9c0.4-1.5,0.8-3,1.2-4.5
		c0.4-1.5,0.9-3,1.2-4.6c0.3-1.6,0.6-3.2,0.9-4.8c0.3-1.5,0.7-3.1,0.9-4.5C344.3,224.3,344.4,220.8,344,217.4z" style="fill:#e55353"/>
    </g>
    <g>
        <linearGradient id="SVGID_38_" gradientUnits="userSpaceOnUse" x1="297.5299" y1="153.9469" x2="297.5728" y2="153.9469">
            <stop offset="0" style="stop-color:#0f305e"/>
            <stop offset="0.3701" style="stop-color:#091d46"/>
            <stop offset="1" style="stop-color:#000020"/>
        </linearGradient>
        <path d="M297.6,153.9C297.6,153.9,297.6,153.9,297.6,153.9C297.5,153.9,297.5,153.9,297.6,153.9
		C297.5,153.9,297.6,153.9,297.6,153.9z" style="fill:url(#SVGID_38_)"/>
        <linearGradient id="SVGID_39_" gradientUnits="userSpaceOnUse" x1="287.3752" y1="153.7951" x2="300.1501" y2="153.7951">
            <stop offset="0" style="stop-color:#0f305e"/>
            <stop offset="0.3701" style="stop-color:#091d46"/>
            <stop offset="1" style="stop-color:#000020"/>
        </linearGradient>
        <path d="M299.1,152.6c-0.8-0.3-1.9-0.3-2.8-0.5c-0.6-0.1-1.2-0.1-1.7-0.1c-1.2,0-2.5-0.2-3.7,0.3
		c-0.6,0.2-4.6,2-3.3,3c0.4,0.3,1.1,0.1,1.5,0c0.4-0.1,4.5-1.3,5.9-1.4c0.5,0,0.9,0,1.4,0c0,0,2.4,0.1,3.6-0.1
		C300.3,153.7,300.2,153,299.1,152.6z" style="fill:url(#SVGID_39_)"/>
        <linearGradient id="SVGID_40_" gradientUnits="userSpaceOnUse" x1="287.6876" y1="159.0661" x2="298.6942" y2="159.0661">
            <stop offset="0" style="stop-color:#0f305e"/>
            <stop offset="0.3701" style="stop-color:#091d46"/>
            <stop offset="1" style="stop-color:#000020"/>
        </linearGradient>
        <path d="M298,157.2c-1.8-0.5-4.6,1.6-6.3,2.1c-0.7,0.2-1.3,0.4-2.3,0.6c-0.4,0-1.4,0.2-1.6,0.3
		c-0.8,0.5,3.6,0.8,4.1,0.8c1.2-0.1,2.3-0.4,3.4-0.8c0.6-0.2,1.3-0.5,1.8-0.8C297.9,159,299.7,157.6,298,157.2
		C297.8,157.1,298.3,157.3,298,157.2z" style="fill:url(#SVGID_40_)"/>
    </g>
    <g>
        <path class="st45" d="M316.5,283.8C316.1,283.7,316.9,283.8,316.5,283.8c-2.3-0.4-4.5-1.5-6.6-2.4c-2.1-0.9-4.1-2-6.1-3.1
		c-4.2-2.4-8.5-4.8-12.4-7.6c-4-2.9-7.9-6.2-11.7-9.5c-3.7-3.2-7.2-6.4-11.4-8.7c-1-0.5-2-1.1-3.2-1.3c-1.2-0.3-2.4-0.1-3.5,0
		c-2.4,0.1-4.8-0.1-7.2-0.5c-2.3-0.4-4.6-1.1-6.5-2.5c-1.7-1.2-2.9-2.8-3.7-4.7c-0.5-1-0.9-2-1-3.1c-0.1-0.5-0.1-1.1,0-1.7
		c0-0.3,0.1-0.5,0.2-0.8c0.2-0.4,0.2-0.4,0.1-0.7c-0.1-1,1.2-1.6,1.9-1.9c1.2-0.5,2.4-0.7,3.6-0.8c2.3-0.1,4.6,0.2,6.8,0.6
		c1.2,0.3,2.2,0.4,3.4,0.5c1.3,0.1,2.5,0.3,3.8,0.5c6.3,1.2,12.1,4.2,17.6,7.5c5.6,3.3,11.1,6.9,17,9.7c-0.1,0,0,0,0.2,0.1
		c-0.2-0.1,0.1,0.1,0.1,0.1c0.2,0.1,0.3,0.1,0.5,0.2c0.8,0.4,2.4,1.1,3.4,1.6c2.4,1,4.8,1.9,7,3.2c-0.9-0.5,1.5-10.7,1.8-10.6
		c2.8,0.2,16.2,3.8,20.2,5.2c0.2,0.1,0.5,0.2,0.7,0.2c0.4,0.1,0.4,0,0.3,0.4c-0.1,0.6-0.2,1.2-0.4,1.8c-0.3,1.3-0.6,2.6-1,3.9
		c-1.8,6.9-3.9,14.2-8,20.3c-0.8,1.1-1.6,2.3-2.5,3.3C318.8,284,317.7,284,316.5,283.8z"/>
    </g>
    <g>
        <g>
            <path class="st45" d="M320.3,162.5c0.2-0.3,0.4-0.6,0.5-0.9c0.7-1.5,1.5-3,2.4-4.3c2-2.8,0.5-6.8-2.8-7.7
			c-1.4-0.4-2.8,0.2-3.4,1.6c-0.2,0.6-0.3,1.3,0.2,1.6c0.7,0.4,1.2,0,1.5-0.7c0.2-0.5,0.5-1,1.2-0.9c1.3,0.2,2.4,1.6,2.4,3
			c0,0.1,0,0.2,0,0.2c0,0.4,0,0.8-0.2,1.1c0,0,0.1,0,0.1,0c-1.6,2.1-2.5,4.2-2.9,6.6c0,0.3-0.4,0.6,0.1,0.7
			C319.9,162.7,320.2,162.7,320.3,162.5z"/>
            <path class="st45" d="M316.5,158.9c0.1-1.2,0.6-2.3,1.1-3.4c0.3-0.6,0.8-0.5,1.3-0.4c0.5,0.1,1,0.6,0.9,1.2
			c-0.2,1.2-0.4,2.4-1,3.5c-0.3,0.5-0.7,0.9-1.3,0.7C316.8,160.1,316.4,159.7,316.5,158.9z"/>
        </g>
    </g>
    <path class="st45" d="M307.9,180c2.5-0.9,5.7-5.6,7.8-7.4c2-1.8,4.3-3.7,5.3-5c1-1.3,3.4-1.7,4-2.9c0.6-1.2,0.5,4.5,2.2,10.6
	c2.2,8,7,12,6.9,12c-1.3-0.4-7.4-6.2-12.3-2c-1.7,1.5-9.3,6.3-9.3,6.3s0.2-1.5-0.2-3.9c-0.2-1.4-1-3.3-2.1-5.2
	C309.9,181.9,307.9,180,307.9,180z"/>
    <linearGradient id="SVGID_41_" gradientUnits="userSpaceOnUse" x1="288.385" y1="169.1687" x2="355.2176" y2="162.7675">
        <stop offset="0" style="stop-color:#fff"/>
        <stop offset="0.1692" style="stop-color:#f4f4f4"/>
        <stop offset="0.4683" style="stop-color:#d6d7d8"/>
        <stop offset="0.8596" style="stop-color:#a6a8aa"/>
        <stop offset="1" style="stop-color:#939598"/>
    </linearGradient>
    <path d="M321.5,161c-1.4,0-8.5,8.9-8.8,9.2c-0.4-0.1-0.8-0.1-1.1,0c-1.7,0.4-3.1-1.1-4-2.5c-0.9-1.4-1.4-3.1-2-4.7
	c-0.1-0.3-0.2-0.6-0.4-0.9c-0.2-0.5-0.1-0.5,0.4-0.9c0.9-0.7,1.8-1.3,2.6-2c1.8-1.4,9.4-7.6,9.2-8.1c-0.4-1-3.1,1.6-3.8,2.1
	c-3,2.2-6.3,4.7-9.1,7.5c-0.3-0.3-0.2-0.6-0.7-0.8c-0.4-0.1-0.8,0-1.2,0.1c-0.8,0.2-4.3,0.7-5.3,0.8c-1,0.1-2,0.4-3,0.5
	c-1.7,0.1-3.5,0.1-5.1,0.6c-0.6,0.2-1.9,8.3-1.4,9.6c0.3,0.9,0.9,1.7,1.4,2.4c0.6,0.6,1,1.4,1.5,2.1c1.2,1.5,2.6,2.9,3.9,4.4
	c0.6,0.7,1.4,1.4,2.1,2.1c0.8,0.9,1.8,1.1,3,1c3.8-0.3,7.2-2.6,10.2-4.8c1.7-1.2,3.1-2.8,4.6-4.3c0.5-0.5,1.5-1.3,1.2-2.1
	c-0.2-0.7-1.2-1.1-1.8-1.4c1-0.9,8.1-8.5,7.9-9.5C321.7,161,321.6,161,321.5,161z" style="fill:url(#SVGID_41_)"/>
    <linearGradient id="SVGID_42_" gradientUnits="userSpaceOnUse" x1="285.1839" y1="184.4972" x2="350.3182" y2="184.4972">
        <stop offset="0" style="stop-color:#0f305e"/>
        <stop offset="0.3701" style="stop-color:#091d46"/>
        <stop offset="1" style="stop-color:#000020"/>
    </linearGradient>
    <path d="M350.3,215.6c-0.2-10.4-1.3-20.7-2.6-31c-0.6-5.1-1.6-10.2-2.7-15.2c-1.1-5-2.2-10-3.6-14.9
	c-1.4-4.8-3.5-9.5-6-13.8c-2.3-4-4.9-8.3-8.6-11.2c-0.5-0.4-0.9-0.7-1.4-1c-0.3-0.2-1.2-0.5-1.3-0.8c-0.2-0.4-0.6-0.6-1-0.8
	c-0.6-0.3-1.3-0.6-1.9-0.9c-2.2-1-4.4-2-6.8-2.7c-4.9-1.3-10.2-0.9-15,0.4c-4.5,1.2-8.4,3.8-11.2,7.5c-1.3,1.7-2.3,3.7-2.8,5.7
	c-0.2,1-0.2,2,0.5,2.8c0.7,0.8,1.7,1.4,2.8,1.6c1.1,0.2,2.2,0.2,3.3,0.5c1.2,0.3,2.3,0.8,3.3,1.3c2.3,1.1,4.4,2.4,6.7,3.5
	c2.2,1.1,4.4,2.1,6.8,2.7c1.1,0.3,2.1,0.6,3.2,0.6c1,0,1.9,0,2.9,0.2c1.8,0.5,2.7,2.5,3.4,4.1c0.9,2,1.9,4.1,2.7,6.1
	c1.9,4.8,2.9,9.8,4.2,14.7c1.3,5,2.7,9.9,4.1,14.9c0.9,3,1.7,6.1,2.1,9.2c1.5,11.7,1.9,23.7,4.5,35.3c0.5,2,0.9,4,1.6,5.9
	c0.6,1.7,1.4,3.6,2.8,4.9c1.1,1.1,2.7,1.7,4.2,0.9c1.9-0.9,2.7-2.9,3.3-4.8c1.3-4,1.9-8.3,2.2-12.5
	C350.3,224.4,350.4,220,350.3,215.6z M336.8,230C336.8,230,336.8,230,336.8,230C336.8,230,336.8,230,336.8,230L336.8,230z
	 M336.8,230c0-0.1-0.1-0.3-0.1-0.4C336.8,229.7,336.8,229.9,336.8,230L336.8,230z M336.9,230.3C336.9,230.3,336.9,230.3,336.9,230.3
	C336.9,230.3,336.9,230.3,336.9,230.3L336.9,230.3z M336.9,230.3C336.9,230.3,336.9,230.3,336.9,230.3L336.9,230.3L336.9,230.3z" style="fill:url(#SVGID_42_)"/>
    <g>
        <g>
            <linearGradient id="SVGID_43_" gradientUnits="userSpaceOnUse" x1="80.6339" y1="206.6784" x2="133.2619" y2="206.6784">
                <stop offset="0" style="stop-color:#d60812"/>
                <stop offset="0.5121" style="stop-color:#aa0413"/>
                <stop offset="1" style="stop-color:#840013"/>
            </linearGradient>
            <circle cx="106.9" cy="206.7" r="26.3" style="fill:url(#SVGID_43_)"/>
            <linearGradient id="SVGID_44_" gradientUnits="userSpaceOnUse" x1="102.2654" y1="177.7309" x2="111.6357" y2="177.7309">
                <stop offset="0" style="stop-color:#d60812"/>
                <stop offset="0.5121" style="stop-color:#aa0413"/>
                <stop offset="1" style="stop-color:#840013"/>
            </linearGradient>
            <path d="M106.1,183.4c-0.1-1.8-0.2-2-2.9-6.7c-3.1-5.4,2.6-5.4,3.5-5.4c0.9,0,6.8-0.8,4.3,4.9
			c-1.6,3.5-2.6,4.9-2.6,7.1C108.4,184.6,106.1,184.4,106.1,183.4z" style="fill:url(#SVGID_44_)"/>
            <linearGradient id="SVGID_45_" gradientUnits="userSpaceOnUse" x1="102.2654" y1="177.7309" x2="111.6357" y2="177.7309">
                <stop offset="0" style="stop-color:#d60812"/>
                <stop offset="0.5121" style="stop-color:#aa0413"/>
                <stop offset="1" style="stop-color:#840013"/>
            </linearGradient>
            <path d="M106.1,183.4c-0.1-1.8-0.2-2-2.9-6.7c-3.1-5.4,2.6-5.4,3.5-5.4c0.9,0,6.8-0.8,4.3,4.9
			c-1.6,3.5-2.6,4.9-2.6,7.1C108.4,184.6,106.1,184.4,106.1,183.4z" style="fill:url(#SVGID_45_)"/>
            <linearGradient id="SVGID_46_" gradientUnits="userSpaceOnUse" x1="87.3199" y1="180.4569" x2="97.4625" y2="180.4569">
                <stop offset="0" style="stop-color:#d60812"/>
                <stop offset="0.5121" style="stop-color:#aa0413"/>
                <stop offset="1" style="stop-color:#840013"/>
            </linearGradient>
            <path d="M95.4,186.5c-0.9-1.6-1.1-1.7-5.7-4.6c-5.3-3.3-0.2-6,0.6-6.4c0.8-0.4,5.7-3.9,6.1,2.3c0.2,3.9,0,5.5,1,7.5
			C98,186.5,95.9,187.3,95.4,186.5z" style="fill:url(#SVGID_46_)"/>
            <linearGradient id="SVGID_47_" gradientUnits="userSpaceOnUse" x1="76.3847" y1="188.9594" x2="88.9045" y2="188.9594">
                <stop offset="0" style="stop-color:#d60812"/>
                <stop offset="0.5121" style="stop-color:#aa0413"/>
                <stop offset="1" style="stop-color:#840013"/>
            </linearGradient>
            <path d="M87.3,194.2c-1.5-1-1.8-1-7.2-1.4c-6.2-0.5-3-5.2-2.4-6c0.5-0.8,3.2-6.1,6.5-0.7c2,3.3,2.6,4.9,4.3,6.1
			C89.6,193,88.2,194.7,87.3,194.2z" style="fill:url(#SVGID_47_)"/>
            <linearGradient id="SVGID_48_" gradientUnits="userSpaceOnUse" x1="71.7213" y1="202.7091" x2="84.7124" y2="202.7091">
                <stop offset="0" style="stop-color:#d60812"/>
                <stop offset="0.5121" style="stop-color:#aa0413"/>
                <stop offset="1" style="stop-color:#840013"/>
            </linearGradient>
            <path d="M83.7,204.7c-1.8-0.2-2-0.1-7,2.1c-5.7,2.5-5-3.2-4.9-4.1c0.1-0.9,0-6.9,5.4-3.7c3.3,2,4.6,3.1,6.7,3.4
			C85.2,202.6,84.7,204.8,83.7,204.7z" style="fill:url(#SVGID_48_)"/>
            <linearGradient id="SVGID_49_" gradientUnits="userSpaceOnUse" x1="73.0134" y1="218.1816" x2="85.9469" y2="218.1816">
                <stop offset="0" style="stop-color:#d60812"/>
                <stop offset="0.5121" style="stop-color:#aa0413"/>
                <stop offset="1" style="stop-color:#840013"/>
            </linearGradient>
            <path d="M85.5,215.7c-1.7,0.7-1.8,0.9-5.3,5.1c-3.9,4.8-6-0.5-6.3-1.4c-0.3-0.9-3.2-6.1,3.1-5.7
			c3.9,0.2,5.5,0.6,7.5-0.1C85.8,213.1,86.4,215.3,85.5,215.7z" style="fill:url(#SVGID_49_)"/>
            <linearGradient id="SVGID_50_" gradientUnits="userSpaceOnUse" x1="80.9958" y1="228.9732" x2="92.314" y2="228.9732">
                <stop offset="0" style="stop-color:#d60812"/>
                <stop offset="0.5121" style="stop-color:#aa0413"/>
                <stop offset="1" style="stop-color:#840013"/>
            </linearGradient>
            <path d="M92.2,224.7c-1.2,1.4-1.2,1.6-2.3,6.9c-1.2,6.1-5.5,2.3-6.2,1.7c-0.7-0.6-5.7-3.9,0-6.5
			c3.5-1.6,5.2-2,6.6-3.6C91.3,222.2,92.8,223.9,92.2,224.7z" style="fill:url(#SVGID_50_)"/>
            <linearGradient id="SVGID_51_" gradientUnits="userSpaceOnUse" x1="94.4379" y1="234.8517" x2="103.7619" y2="234.8517">
                <stop offset="0" style="stop-color:#d60812"/>
                <stop offset="0.5121" style="stop-color:#aa0413"/>
                <stop offset="1" style="stop-color:#840013"/>
            </linearGradient>
            <path d="M102.2,229.5c-0.4,1.8-0.3,2,1.2,7.2c1.7,6-3.8,4.6-4.7,4.4c-0.9-0.2-6.8-0.8-3-5.8c2.4-3.1,3.7-4.2,4.2-6.2
			C100.3,227.7,102.4,228.5,102.2,229.5z" style="fill:url(#SVGID_51_)"/>
            <linearGradient id="SVGID_52_" gradientUnits="userSpaceOnUse" x1="110.1663" y1="235.0126" x2="119.4061" y2="235.0126">
                <stop offset="0" style="stop-color:#d60812"/>
                <stop offset="0.5121" style="stop-color:#aa0413"/>
                <stop offset="1" style="stop-color:#840013"/>
            </linearGradient>
            <path d="M113.4,229.1c0.5,1.8,0.7,1.9,4.4,5.8c4.3,4.5-1.2,5.9-2.1,6.1c-0.9,0.2-6.4,2.4-5.3-3.7
			c0.7-3.8,1.3-5.4,0.8-7.5C110.8,228.4,113.1,228.1,113.4,229.1z" style="fill:url(#SVGID_52_)"/>
            <linearGradient id="SVGID_53_" gradientUnits="userSpaceOnUse" x1="121.1558" y1="229.2631" x2="132.7333" y2="229.2631">
                <stop offset="0" style="stop-color:#d60812"/>
                <stop offset="0.5121" style="stop-color:#aa0413"/>
                <stop offset="1" style="stop-color:#840013"/>
            </linearGradient>
            <path d="M123,223.5c1.3,1.3,1.5,1.4,6.6,3.1c5.9,2,1.6,5.8,0.9,6.4c-0.7,0.6-4.6,5.2-6.5-0.8c-1.2-3.7-1.4-5.4-2.7-7
			C120.5,224.1,122.3,222.8,123,223.5z" style="fill:url(#SVGID_53_)"/>
            <linearGradient id="SVGID_54_" gradientUnits="userSpaceOnUse" x1="127.7314" y1="218.2791" x2="140.6925" y2="218.2791">
                <stop offset="0" style="stop-color:#d60812"/>
                <stop offset="0.5121" style="stop-color:#aa0413"/>
                <stop offset="1" style="stop-color:#840013"/>
            </linearGradient>
            <path d="M129,214.1c1.7,0.6,2,0.6,7.3-0.3c6.1-1,4.1,4.3,3.8,5.2c-0.3,0.9-1.6,6.7-6.1,2.3c-2.7-2.7-3.7-4.1-5.7-4.9
			C127,215.8,128.1,213.8,129,214.1z" style="fill:url(#SVGID_54_)"/>
            <linearGradient id="SVGID_55_" gradientUnits="userSpaceOnUse" x1="129.267" y1="202.7125" x2="142.2981" y2="202.7125">
                <stop offset="0" style="stop-color:#d60812"/>
                <stop offset="0.5121" style="stop-color:#aa0413"/>
                <stop offset="1" style="stop-color:#840013"/>
            </linearGradient>
            <path d="M130,203c1.8-0.3,2-0.4,6.3-3.7c5-3.8,5.7,1.9,5.8,2.9c0.1,0.9,1.7,6.7-4.3,4.8c-3.7-1.1-5.2-1.9-7.3-1.7
			C129,205.4,129,203.2,130,203z" style="fill:url(#SVGID_55_)"/>
            <linearGradient id="SVGID_56_" gradientUnits="userSpaceOnUse" x1="125.3369" y1="189.267" x2="137.7191" y2="189.267">
                <stop offset="0" style="stop-color:#d60812"/>
                <stop offset="0.5121" style="stop-color:#aa0413"/>
                <stop offset="1" style="stop-color:#840013"/>
            </linearGradient>
            <path d="M125.6,192.7c1.5-1.1,1.6-1.3,3.9-6.2c2.7-5.6,5.9-0.9,6.4-0.2c0.5,0.8,4.6,5.2-1.6,6.3
			c-3.8,0.7-5.5,0.7-7.3,1.9C125.9,195.3,124.8,193.3,125.6,192.7z" style="fill:url(#SVGID_56_)"/>
            <linearGradient id="SVGID_57_" gradientUnits="userSpaceOnUse" x1="116.9375" y1="180.7021" x2="126.7002" y2="180.7021">
                <stop offset="0" style="stop-color:#d60812"/>
                <stop offset="0.5121" style="stop-color:#aa0413"/>
                <stop offset="1" style="stop-color:#840013"/>
            </linearGradient>
            <path d="M117,185.7c0.8-1.6,0.8-1.9,0.6-7.3c-0.3-6.2,4.8-3.6,5.6-3.1c0.8,0.4,6.4,2.4,1.5,6.3c-3,2.4-4.5,3.2-5.6,5
			C118.4,187.8,116.6,186.6,117,185.7z" style="fill:url(#SVGID_57_)"/>
        </g>
        <g>
            <linearGradient id="SVGID_58_" gradientUnits="userSpaceOnUse" x1="93.2803" y1="188.1699" x2="102.6245" y2="188.1699">
                <stop offset="0" style="stop-color:#d60812"/>
                <stop offset="0.5121" style="stop-color:#aa0413"/>
                <stop offset="1" style="stop-color:#840013"/>
            </linearGradient>
            <path d="M95.8,191.5c-5.7-2.5,0-6,0.9-6.4c0.8-0.4,5.8-3.7,6,2.6C102.7,191.6,101.2,193.8,95.8,191.5z" style="fill:url(#SVGID_58_)"/>
            <linearGradient id="SVGID_59_" gradientUnits="userSpaceOnUse" x1="84.1842" y1="201.4536" x2="92.5511" y2="201.4536">
                <stop offset="0" style="stop-color:#d60812"/>
                <stop offset="0.5121" style="stop-color:#aa0413"/>
                <stop offset="1" style="stop-color:#840013"/>
            </linearGradient>
            <path d="M88.8,205.6c-5.5,2.9-4.7-3.7-4.5-4.6c0.2-0.9,0.7-6.8,5.7-3.1C93.2,200.2,94,202.8,88.8,205.6z" style="fill:url(#SVGID_59_)"/>
            <linearGradient id="SVGID_60_" gradientUnits="userSpaceOnUse" x1="87.0145" y1="218.2584" x2="95.7015" y2="218.2584">
                <stop offset="0" style="stop-color:#d60812"/>
                <stop offset="0.5121" style="stop-color:#aa0413"/>
                <stop offset="1" style="stop-color:#840013"/>
            </linearGradient>
            <path d="M95.5,219.8c-1.1,6.1-5.8,1.3-6.4,0.6c-0.6-0.7-4.9-4.8,1.2-6.4C94,213,96.5,214,95.5,219.8z" style="fill:url(#SVGID_60_)"/>
            <linearGradient id="SVGID_61_" gradientUnits="userSpaceOnUse" x1="102.2677" y1="224.7758" x2="112.025" y2="224.7758">
                <stop offset="0" style="stop-color:#d60812"/>
                <stop offset="0.5121" style="stop-color:#aa0413"/>
                <stop offset="1" style="stop-color:#840013"/>
            </linearGradient>
            <path d="M110.7,223.5c4.1,4.7-2.6,5.4-3.5,5.4c-0.9,0-6.8,0.8-4.3-4.9C104.5,220.4,106.9,219,110.7,223.5z" style="fill:url(#SVGID_61_)"/>
            <linearGradient id="SVGID_62_" gradientUnits="userSpaceOnUse" x1="117.6831" y1="218.2988" x2="126.6938" y2="218.2988">
                <stop offset="0" style="stop-color:#d60812"/>
                <stop offset="0.5121" style="stop-color:#aa0413"/>
                <stop offset="1" style="stop-color:#840013"/>
            </linearGradient>
            <path d="M123.1,213.8c6.2-0.2,2.6,5.4,2,6.1c-0.6,0.7-3.6,5.9-6.5,0.3C116.8,216.8,117.3,214.1,123.1,213.8z" style="fill:url(#SVGID_62_)"/>
            <linearGradient id="SVGID_63_" gradientUnits="userSpaceOnUse" x1="121.4616" y1="201.0085" x2="129.8351" y2="201.0085">
                <stop offset="0" style="stop-color:#d60812"/>
                <stop offset="0.5121" style="stop-color:#aa0413"/>
                <stop offset="1" style="stop-color:#840013"/>
            </linearGradient>
            <path d="M123.3,198.1c3.7-5,5.8,1.4,6,2.3c0.2,0.9,2.3,6.5-3.8,5.3C121.7,204.9,119.8,202.8,123.3,198.1z" style="fill:url(#SVGID_63_)"/>
            <linearGradient id="SVGID_64_" gradientUnits="userSpaceOnUse" x1="110.8658" y1="188.4646" x2="120.2769" y2="188.4646">
                <stop offset="0" style="stop-color:#d60812"/>
                <stop offset="0.5121" style="stop-color:#aa0413"/>
                <stop offset="1" style="stop-color:#840013"/>
            </linearGradient>
            <path d="M111.1,188.2c-1.6-6,4.7-3.7,5.5-3.3c0.8,0.4,6.5,2.2,1.7,6.3C115.4,193.6,112.7,193.8,111.1,188.2z" style="fill:url(#SVGID_64_)"/>
        </g>
        <linearGradient id="SVGID_65_" gradientUnits="userSpaceOnUse" x1="102.1114" y1="198.0507" x2="111.908" y2="198.0507">
            <stop offset="0" style="stop-color:#d60812"/>
            <stop offset="0.5121" style="stop-color:#aa0413"/>
            <stop offset="1" style="stop-color:#840013"/>
        </linearGradient>
        <ellipse cx="107" cy="198.1" rx="4.9" ry="3.7" style="fill:url(#SVGID_65_)"/>
        <linearGradient id="SVGID_66_" gradientUnits="userSpaceOnUse" x1="95.7132" y1="209.0716" x2="104.1034" y2="209.0716">
            <stop offset="0" style="stop-color:#d60812"/>
            <stop offset="0.5121" style="stop-color:#aa0413"/>
            <stop offset="1" style="stop-color:#840013"/>
        </linearGradient>
        <path d="M102.9,212.9c-1.6,1.3-4.3,0.6-5.9-1.6c-1.7-2.1-1.7-4.9-0.1-6.1c1.6-1.3,4.3-0.6,5.9,1.6
		C104.5,208.9,104.5,211.7,102.9,212.9z" style="fill:url(#SVGID_66_)"/>
        <linearGradient id="SVGID_67_" gradientUnits="userSpaceOnUse" x1="110.178" y1="209.0769" x2="118.5795" y2="209.0769">
            <stop offset="0" style="stop-color:#d60812"/>
            <stop offset="0.5121" style="stop-color:#aa0413"/>
            <stop offset="1" style="stop-color:#840013"/>
        </linearGradient>
        <path d="M117.4,205.2c1.6,1.3,1.5,4-0.1,6.1c-1.7,2.1-4.3,2.8-5.9,1.5c-1.6-1.3-1.5-4,0.1-6.1
		C113.2,204.7,115.8,204,117.4,205.2z" style="fill:url(#SVGID_67_)"/>
    </g>
    <g>
        <g>
            <linearGradient id="SVGID_68_" gradientUnits="userSpaceOnUse" x1="133.5067" y1="144.6292" x2="162.0722" y2="144.6292">
                <stop offset="0" style="stop-color:#d60812"/>
                <stop offset="0.5121" style="stop-color:#aa0413"/>
                <stop offset="1" style="stop-color:#840013"/>
            </linearGradient>
            <circle cx="147.8" cy="144.6" r="14.3" style="fill:url(#SVGID_68_)"/>
            <linearGradient id="SVGID_69_" gradientUnits="userSpaceOnUse" x1="145.2479" y1="128.917" x2="150.3339" y2="128.917">
                <stop offset="0" style="stop-color:#d60812"/>
                <stop offset="0.5121" style="stop-color:#aa0413"/>
                <stop offset="1" style="stop-color:#840013"/>
            </linearGradient>
            <path d="M147.3,132c0-1-0.1-1.1-1.6-3.6c-1.7-2.9,1.4-2.9,1.9-2.9c0.5,0,3.7-0.5,2.3,2.7c-0.9,1.9-1.4,2.7-1.4,3.8
			C148.6,132.7,147.3,132.5,147.3,132z" style="fill:url(#SVGID_69_)"/>
            <linearGradient id="SVGID_70_" gradientUnits="userSpaceOnUse" x1="145.2479" y1="128.917" x2="150.3339" y2="128.917">
                <stop offset="0" style="stop-color:#d60812"/>
                <stop offset="0.5121" style="stop-color:#aa0413"/>
                <stop offset="1" style="stop-color:#840013"/>
            </linearGradient>
            <path d="M147.3,132c0-1-0.1-1.1-1.6-3.6c-1.7-2.9,1.4-2.9,1.9-2.9c0.5,0,3.7-0.5,2.3,2.7c-0.9,1.9-1.4,2.7-1.4,3.8
			C148.6,132.7,147.3,132.5,147.3,132z" style="fill:url(#SVGID_70_)"/>
            <linearGradient id="SVGID_71_" gradientUnits="userSpaceOnUse" x1="137.1357" y1="130.3966" x2="142.641" y2="130.3966">
                <stop offset="0" style="stop-color:#d60812"/>
                <stop offset="0.5121" style="stop-color:#aa0413"/>
                <stop offset="1" style="stop-color:#840013"/>
            </linearGradient>
            <path d="M141.5,133.7c-0.5-0.9-0.6-0.9-3.1-2.5c-2.9-1.8-0.1-3.2,0.3-3.5c0.4-0.2,3.1-2.1,3.3,1.3c0.1,2.1,0,3,0.5,4
			C142.9,133.7,141.8,134.1,141.5,133.7z" style="fill:url(#SVGID_71_)"/>
            <linearGradient id="SVGID_72_" gradientUnits="userSpaceOnUse" x1="131.2003" y1="135.0116" x2="137.9958" y2="135.0116">
                <stop offset="0" style="stop-color:#d60812"/>
                <stop offset="0.5121" style="stop-color:#aa0413"/>
                <stop offset="1" style="stop-color:#840013"/>
            </linearGradient>
            <path d="M137.1,137.8c-0.8-0.5-1-0.5-3.9-0.8c-3.4-0.3-1.6-2.8-1.3-3.2c0.3-0.4,1.7-3.3,3.5-0.4
			c1.1,1.8,1.4,2.7,2.3,3.3C138.4,137.2,137.6,138.1,137.1,137.8z" style="fill:url(#SVGID_72_)"/>
            <linearGradient id="SVGID_73_" gradientUnits="userSpaceOnUse" x1="128.6691" y1="142.4747" x2="135.7204" y2="142.4747">
                <stop offset="0" style="stop-color:#d60812"/>
                <stop offset="0.5121" style="stop-color:#aa0413"/>
                <stop offset="1" style="stop-color:#840013"/>
            </linearGradient>
            <path d="M135.2,143.6c-1-0.1-1.1,0-3.8,1.1c-3.1,1.3-2.7-1.8-2.7-2.3c0.1-0.5,0-3.7,2.9-2c1.8,1.1,2.5,1.7,3.6,1.9
			C136,142.4,135.7,143.6,135.2,143.6z" style="fill:url(#SVGID_73_)"/>
            <linearGradient id="SVGID_74_" gradientUnits="userSpaceOnUse" x1="129.3703" y1="150.8729" x2="136.3905" y2="150.8729">
                <stop offset="0" style="stop-color:#d60812"/>
                <stop offset="0.5121" style="stop-color:#aa0413"/>
                <stop offset="1" style="stop-color:#840013"/>
            </linearGradient>
            <path d="M136.1,149.5c-0.9,0.4-1,0.5-2.8,2.8c-2.1,2.6-3.2-0.3-3.4-0.8c-0.2-0.5-1.7-3.3,1.7-3.1
			c2.1,0.1,3,0.3,4.1,0C136.3,148.1,136.6,149.3,136.1,149.5z" style="fill:url(#SVGID_74_)"/>
            <linearGradient id="SVGID_75_" gradientUnits="userSpaceOnUse" x1="133.7031" y1="156.7304" x2="139.8465" y2="156.7304">
                <stop offset="0" style="stop-color:#d60812"/>
                <stop offset="0.5121" style="stop-color:#aa0413"/>
                <stop offset="1" style="stop-color:#840013"/>
            </linearGradient>
            <path d="M139.8,154.4c-0.6,0.8-0.7,0.9-1.2,3.8c-0.7,3.3-3,1.3-3.4,0.9c-0.4-0.3-3.1-2.1,0-3.5
			c1.9-0.9,2.8-1.1,3.6-1.9C139.3,153.1,140.1,154,139.8,154.4z" style="fill:url(#SVGID_75_)"/>
            <linearGradient id="SVGID_76_" gradientUnits="userSpaceOnUse" x1="140.9993" y1="159.9211" x2="146.0601" y2="159.9211">
                <stop offset="0" style="stop-color:#d60812"/>
                <stop offset="0.5121" style="stop-color:#aa0413"/>
                <stop offset="1" style="stop-color:#840013"/>
            </linearGradient>
            <path d="M145.2,157c-0.2,1-0.2,1.1,0.7,3.9c0.9,3.2-2.1,2.5-2.6,2.4c-0.5-0.1-3.7-0.4-1.6-3.1c1.3-1.7,2-2.3,2.3-3.4
			C144.2,156,145.3,156.5,145.2,157z" style="fill:url(#SVGID_76_)"/>
            <linearGradient id="SVGID_77_" gradientUnits="userSpaceOnUse" x1="149.5364" y1="160.0085" x2="154.5515" y2="160.0085">
                <stop offset="0" style="stop-color:#d60812"/>
                <stop offset="0.5121" style="stop-color:#aa0413"/>
                <stop offset="1" style="stop-color:#840013"/>
            </linearGradient>
            <path d="M151.3,156.8c0.3,1,0.4,1.1,2.4,3.2c2.3,2.4-0.7,3.2-1.2,3.3c-0.5,0.1-3.5,1.3-2.9-2
			c0.4-2.1,0.7-2.9,0.5-4.1C149.9,156.4,151.1,156.3,151.3,156.8z" style="fill:url(#SVGID_77_)"/>
            <linearGradient id="SVGID_78_" gradientUnits="userSpaceOnUse" x1="155.5013" y1="156.8878" x2="161.7854" y2="156.8878">
                <stop offset="0" style="stop-color:#d60812"/>
                <stop offset="0.5121" style="stop-color:#aa0413"/>
                <stop offset="1" style="stop-color:#840013"/>
            </linearGradient>
            <path d="M156.5,153.8c0.7,0.7,0.8,0.8,3.6,1.7c3.2,1.1,0.9,3.1,0.5,3.5c-0.4,0.3-2.5,2.8-3.5-0.4
			c-0.6-2-0.7-2.9-1.5-3.8C155.1,154.1,156.1,153.4,156.5,153.8z" style="fill:url(#SVGID_78_)"/>
            <linearGradient id="SVGID_79_" gradientUnits="userSpaceOnUse" x1="159.0704" y1="150.9258" x2="166.1055" y2="150.9258">
                <stop offset="0" style="stop-color:#d60812"/>
                <stop offset="0.5121" style="stop-color:#aa0413"/>
                <stop offset="1" style="stop-color:#840013"/>
            </linearGradient>
            <path d="M159.8,148.7c0.9,0.3,1.1,0.3,4-0.2c3.3-0.6,2.2,2.4,2.1,2.8c-0.2,0.5-0.9,3.6-3.3,1.2
			c-1.5-1.5-2-2.2-3.1-2.7C158.7,149.6,159.3,148.5,159.8,148.7z" style="fill:url(#SVGID_79_)"/>
            <linearGradient id="SVGID_80_" gradientUnits="userSpaceOnUse" x1="159.9039" y1="142.4765" x2="166.9769" y2="142.4765">
                <stop offset="0" style="stop-color:#d60812"/>
                <stop offset="0.5121" style="stop-color:#aa0413"/>
                <stop offset="1" style="stop-color:#840013"/>
            </linearGradient>
            <path d="M160.3,142.6c1-0.2,1.1-0.2,3.4-2c2.7-2,3.1,1,3.1,1.5c0.1,0.5,0.9,3.6-2.4,2.6c-2-0.6-2.8-1.1-4-0.9
			C159.8,143.9,159.7,142.7,160.3,142.6z" style="fill:url(#SVGID_80_)"/>
            <linearGradient id="SVGID_81_" gradientUnits="userSpaceOnUse" x1="157.7707" y1="135.1786" x2="164.4915" y2="135.1786">
                <stop offset="0" style="stop-color:#d60812"/>
                <stop offset="0.5121" style="stop-color:#aa0413"/>
                <stop offset="1" style="stop-color:#840013"/>
            </linearGradient>
            <path d="M157.9,137.1c0.8-0.6,0.9-0.7,2.1-3.4c1.4-3.1,3.2-0.5,3.5-0.1c0.3,0.4,2.5,2.8-0.9,3.4c-2.1,0.4-3,0.4-4,1
			C158.1,138.5,157.5,137.4,157.9,137.1z" style="fill:url(#SVGID_81_)"/>
            <linearGradient id="SVGID_82_" gradientUnits="userSpaceOnUse" x1="153.2117" y1="130.5297" x2="158.5107" y2="130.5297">
                <stop offset="0" style="stop-color:#d60812"/>
                <stop offset="0.5121" style="stop-color:#aa0413"/>
                <stop offset="1" style="stop-color:#840013"/>
            </linearGradient>
            <path d="M153.2,133.2c0.4-0.9,0.4-1,0.3-4c-0.1-3.4,2.6-1.9,3.1-1.7c0.4,0.2,3.5,1.3,0.8,3.4c-1.6,1.3-2.5,1.7-3,2.7
			C154,134.4,153,133.7,153.2,133.2z" style="fill:url(#SVGID_82_)"/>
        </g>
        <g>
            <linearGradient id="SVGID_83_" gradientUnits="userSpaceOnUse" x1="140.3709" y1="134.5831" x2="145.4428" y2="134.5831">
                <stop offset="0" style="stop-color:#d60812"/>
                <stop offset="0.5121" style="stop-color:#aa0413"/>
                <stop offset="1" style="stop-color:#840013"/>
            </linearGradient>
            <path d="M141.7,136.4c-3.1-1.3,0-3.2,0.5-3.5c0.5-0.2,3.2-2,3.2,1.4C145.5,136.4,144.6,137.7,141.7,136.4z" style="fill:url(#SVGID_83_)"/>
            <linearGradient id="SVGID_84_" gradientUnits="userSpaceOnUse" x1="135.4337" y1="141.7932" x2="139.9751" y2="141.7932">
                <stop offset="0" style="stop-color:#d60812"/>
                <stop offset="0.5121" style="stop-color:#aa0413"/>
                <stop offset="1" style="stop-color:#840013"/>
            </linearGradient>
            <path d="M137.9,144c-3,1.6-2.5-2-2.4-2.5c0.1-0.5,0.4-3.7,3.1-1.7C140.3,141.1,140.8,142.5,137.9,144z" style="fill:url(#SVGID_84_)"/>
            <linearGradient id="SVGID_85_" gradientUnits="userSpaceOnUse" x1="136.97" y1="150.9146" x2="141.6851" y2="150.9146">
                <stop offset="0" style="stop-color:#d60812"/>
                <stop offset="0.5121" style="stop-color:#aa0413"/>
                <stop offset="1" style="stop-color:#840013"/>
            </linearGradient>
            <path d="M141.6,151.7c-0.6,3.3-3.2,0.7-3.5,0.3s-2.7-2.6,0.6-3.5C140.7,148.1,142.1,148.6,141.6,151.7z" style="fill:url(#SVGID_85_)"/>
            <linearGradient id="SVGID_86_" gradientUnits="userSpaceOnUse" x1="145.2491" y1="154.4521" x2="150.5452" y2="154.4521">
                <stop offset="0" style="stop-color:#d60812"/>
                <stop offset="0.5121" style="stop-color:#aa0413"/>
                <stop offset="1" style="stop-color:#840013"/>
            </linearGradient>
            <path d="M149.8,153.7c2.2,2.6-1.4,2.9-1.9,2.9c-0.5,0-3.7,0.4-2.3-2.7C146.5,152.1,147.8,151.3,149.8,153.7z" style="fill:url(#SVGID_86_)"/>
            <linearGradient id="SVGID_87_" gradientUnits="userSpaceOnUse" x1="153.6163" y1="150.9365" x2="158.5072" y2="150.9365">
                <stop offset="0" style="stop-color:#d60812"/>
                <stop offset="0.5121" style="stop-color:#aa0413"/>
                <stop offset="1" style="stop-color:#840013"/>
            </linearGradient>
            <path d="M156.6,148.5c3.4-0.1,1.4,2.9,1.1,3.3c-0.3,0.4-2,3.2-3.5,0.2C153.2,150.1,153.4,148.6,156.6,148.5z" style="fill:url(#SVGID_87_)"/>
            <linearGradient id="SVGID_88_" gradientUnits="userSpaceOnUse" x1="155.6673" y1="141.5516" x2="160.2123" y2="141.5516">
                <stop offset="0" style="stop-color:#d60812"/>
                <stop offset="0.5121" style="stop-color:#aa0413"/>
                <stop offset="1" style="stop-color:#840013"/>
            </linearGradient>
            <path d="M156.7,140c2-2.7,3.2,0.7,3.3,1.2s1.3,3.5-2.1,2.9C155.8,143.6,154.8,142.5,156.7,140z" style="fill:url(#SVGID_88_)"/>
            <linearGradient id="SVGID_89_" gradientUnits="userSpaceOnUse" x1="149.916" y1="134.743" x2="155.0242" y2="134.743">
                <stop offset="0" style="stop-color:#d60812"/>
                <stop offset="0.5121" style="stop-color:#aa0413"/>
                <stop offset="1" style="stop-color:#840013"/>
            </linearGradient>
            <path d="M150.1,134.6c-0.9-3.3,2.5-2,3-1.8c0.5,0.2,3.5,1.2,0.9,3.4C152.4,137.6,150.9,137.7,150.1,134.6z" style="fill:url(#SVGID_89_)"/>
        </g>
        <linearGradient id="SVGID_90_" gradientUnits="userSpaceOnUse" x1="145.1643" y1="139.9462" x2="150.4817" y2="139.9462">
            <stop offset="0" style="stop-color:#d60812"/>
            <stop offset="0.5121" style="stop-color:#aa0413"/>
            <stop offset="1" style="stop-color:#840013"/>
        </linearGradient>
        <ellipse cx="147.8" cy="139.9" rx="2.7" ry="2" style="fill:url(#SVGID_90_)"/>
        <linearGradient id="SVGID_91_" gradientUnits="userSpaceOnUse" x1="141.6914" y1="145.9281" x2="146.2455" y2="145.9281">
            <stop offset="0" style="stop-color:#d60812"/>
            <stop offset="0.5121" style="stop-color:#aa0413"/>
            <stop offset="1" style="stop-color:#840013"/>
        </linearGradient>
        <path d="M145.6,148c-0.9,0.7-2.3,0.3-3.2-0.9c-0.9-1.2-0.9-2.6-0.1-3.3c0.9-0.7,2.3-0.3,3.2,0.9
		C146.5,145.8,146.5,147.3,145.6,148z" style="fill:url(#SVGID_91_)"/>
        <linearGradient id="SVGID_92_" gradientUnits="userSpaceOnUse" x1="149.5427" y1="145.931" x2="154.1029" y2="145.931">
            <stop offset="0" style="stop-color:#d60812"/>
            <stop offset="0.5121" style="stop-color:#aa0413"/>
            <stop offset="1" style="stop-color:#840013"/>
        </linearGradient>
        <path d="M153.5,143.8c0.9,0.7,0.8,2.2-0.1,3.3c-0.9,1.2-2.4,1.5-3.2,0.8c-0.9-0.7-0.8-2.2,0.1-3.3
		C151.2,143.5,152.6,143.2,153.5,143.8z" style="fill:url(#SVGID_92_)"/>
    </g>
    <g>
        <g>
            <linearGradient id="SVGID_93_" gradientUnits="userSpaceOnUse" x1="124.0754" y1="270.7075" x2="152.641" y2="270.7075">
                <stop offset="0" style="stop-color:#d60812"/>
                <stop offset="0.5121" style="stop-color:#aa0413"/>
                <stop offset="1" style="stop-color:#840013"/>
            </linearGradient>
            <circle cx="138.4" cy="270.7" r="14.3" style="fill:url(#SVGID_93_)"/>
            <linearGradient id="SVGID_94_" gradientUnits="userSpaceOnUse" x1="135.8166" y1="254.9953" x2="140.9026" y2="254.9953">
                <stop offset="0" style="stop-color:#d60812"/>
                <stop offset="0.5121" style="stop-color:#aa0413"/>
                <stop offset="1" style="stop-color:#840013"/>
            </linearGradient>
            <path d="M137.9,258.1c0-1-0.1-1.1-1.6-3.6c-1.7-2.9,1.4-2.9,1.9-2.9c0.5,0,3.7-0.5,2.3,2.7
			c-0.9,1.9-1.4,2.7-1.4,3.8C139.1,258.7,137.9,258.6,137.9,258.1z" style="fill:url(#SVGID_94_)"/>
            <linearGradient id="SVGID_95_" gradientUnits="userSpaceOnUse" x1="135.8166" y1="254.9953" x2="140.9026" y2="254.9953">
                <stop offset="0" style="stop-color:#d60812"/>
                <stop offset="0.5121" style="stop-color:#aa0413"/>
                <stop offset="1" style="stop-color:#840013"/>
            </linearGradient>
            <path d="M137.9,258.1c0-1-0.1-1.1-1.6-3.6c-1.7-2.9,1.4-2.9,1.9-2.9c0.5,0,3.7-0.5,2.3,2.7
			c-0.9,1.9-1.4,2.7-1.4,3.8C139.1,258.7,137.9,258.6,137.9,258.1z" style="fill:url(#SVGID_95_)"/>
            <linearGradient id="SVGID_96_" gradientUnits="userSpaceOnUse" x1="127.7045" y1="256.4749" x2="133.2097" y2="256.4749">
                <stop offset="0" style="stop-color:#d60812"/>
                <stop offset="0.5121" style="stop-color:#aa0413"/>
                <stop offset="1" style="stop-color:#840013"/>
            </linearGradient>
            <path d="M132.1,259.7c-0.5-0.9-0.6-0.9-3.1-2.5c-2.9-1.8-0.1-3.2,0.3-3.5c0.4-0.2,3.1-2.1,3.3,1.3
			c0.1,2.1,0,3,0.5,4C133.5,259.8,132.3,260.2,132.1,259.7z" style="fill:url(#SVGID_96_)"/>
            <linearGradient id="SVGID_97_" gradientUnits="userSpaceOnUse" x1="121.769" y1="261.0899" x2="128.5646" y2="261.0899">
                <stop offset="0" style="stop-color:#d60812"/>
                <stop offset="0.5121" style="stop-color:#aa0413"/>
                <stop offset="1" style="stop-color:#840013"/>
            </linearGradient>
            <path d="M127.7,263.9c-0.8-0.5-1-0.5-3.9-0.8c-3.4-0.3-1.6-2.8-1.3-3.2s1.7-3.3,3.5-0.4c1.1,1.8,1.4,2.7,2.3,3.3
			C129,263.3,128.2,264.2,127.7,263.9z" style="fill:url(#SVGID_97_)"/>
            <linearGradient id="SVGID_98_" gradientUnits="userSpaceOnUse" x1="119.2378" y1="268.553" x2="126.2892" y2="268.553">
                <stop offset="0" style="stop-color:#d60812"/>
                <stop offset="0.5121" style="stop-color:#aa0413"/>
                <stop offset="1" style="stop-color:#840013"/>
            </linearGradient>
            <path d="M125.8,269.6c-1-0.1-1.1,0-3.8,1.1c-3.1,1.3-2.7-1.8-2.7-2.3c0.1-0.5,0-3.7,2.9-2c1.8,1.1,2.5,1.7,3.6,1.9
			C126.6,268.5,126.3,269.7,125.8,269.6z" style="fill:url(#SVGID_98_)"/>
            <linearGradient id="SVGID_99_" gradientUnits="userSpaceOnUse" x1="119.9391" y1="276.9512" x2="126.9592" y2="276.9512">
                <stop offset="0" style="stop-color:#d60812"/>
                <stop offset="0.5121" style="stop-color:#aa0413"/>
                <stop offset="1" style="stop-color:#840013"/>
            </linearGradient>
            <path d="M126.7,275.6c-0.9,0.4-1,0.5-2.8,2.8c-2.1,2.6-3.2-0.3-3.4-0.8c-0.2-0.5-1.7-3.3,1.7-3.1
			c2.1,0.1,3,0.3,4.1,0C126.9,274.2,127.2,275.4,126.7,275.6z" style="fill:url(#SVGID_99_)"/>
            <linearGradient id="SVGID_100_" gradientUnits="userSpaceOnUse" x1="124.2719" y1="282.8087" x2="130.4152" y2="282.8087">
                <stop offset="0" style="stop-color:#d60812"/>
                <stop offset="0.5121" style="stop-color:#aa0413"/>
                <stop offset="1" style="stop-color:#840013"/>
            </linearGradient>
            <path d="M130.3,280.5c-0.6,0.8-0.7,0.9-1.2,3.8c-0.7,3.3-3,1.3-3.4,0.9c-0.4-0.3-3.1-2.1,0-3.5
			c1.9-0.9,2.8-1.1,3.6-1.9C129.9,279.1,130.7,280,130.3,280.5z" style="fill:url(#SVGID_100_)"/>
            <linearGradient id="SVGID_101_" gradientUnits="userSpaceOnUse" x1="131.568" y1="285.9995" x2="136.6289" y2="285.9995">
                <stop offset="0" style="stop-color:#d60812"/>
                <stop offset="0.5121" style="stop-color:#aa0413"/>
                <stop offset="1" style="stop-color:#840013"/>
            </linearGradient>
            <path d="M135.8,283.1c-0.2,1-0.2,1.1,0.7,3.9c0.9,3.2-2.1,2.5-2.6,2.4c-0.5-0.1-3.7-0.4-1.6-3.1
			c1.3-1.7,2-2.3,2.3-3.4C134.7,282.1,135.9,282.5,135.8,283.1z" style="fill:url(#SVGID_101_)"/>
            <linearGradient id="SVGID_102_" gradientUnits="userSpaceOnUse" x1="140.1051" y1="286.0868" x2="145.1203" y2="286.0868">
                <stop offset="0" style="stop-color:#d60812"/>
                <stop offset="0.5121" style="stop-color:#aa0413"/>
                <stop offset="1" style="stop-color:#840013"/>
            </linearGradient>
            <path d="M141.8,282.9c0.3,1,0.4,1.1,2.4,3.2c2.3,2.4-0.7,3.2-1.2,3.3c-0.5,0.1-3.5,1.3-2.9-2
			c0.4-2.1,0.7-2.9,0.5-4.1C140.5,282.5,141.7,282.3,141.8,282.9z" style="fill:url(#SVGID_102_)"/>
            <linearGradient id="SVGID_103_" gradientUnits="userSpaceOnUse" x1="146.07" y1="282.9661" x2="152.3541" y2="282.9661">
                <stop offset="0" style="stop-color:#d60812"/>
                <stop offset="0.5121" style="stop-color:#aa0413"/>
                <stop offset="1" style="stop-color:#840013"/>
            </linearGradient>
            <path d="M147.1,279.8c0.7,0.7,0.8,0.8,3.6,1.7c3.2,1.1,0.9,3.1,0.5,3.5c-0.4,0.3-2.5,2.8-3.5-0.4
			c-0.6-2-0.7-2.9-1.5-3.8C145.7,280.2,146.7,279.5,147.1,279.8z" style="fill:url(#SVGID_103_)"/>
            <linearGradient id="SVGID_104_" gradientUnits="userSpaceOnUse" x1="149.6391" y1="277.0042" x2="156.6742" y2="277.0042">
                <stop offset="0" style="stop-color:#d60812"/>
                <stop offset="0.5121" style="stop-color:#aa0413"/>
                <stop offset="1" style="stop-color:#840013"/>
            </linearGradient>
            <path d="M150.3,274.7c0.9,0.3,1.1,0.3,4-0.2c3.3-0.6,2.2,2.4,2.1,2.8c-0.2,0.5-0.9,3.6-3.3,1.2
			c-1.5-1.5-2-2.2-3.1-2.7C149.3,275.7,149.8,274.6,150.3,274.7z" style="fill:url(#SVGID_104_)"/>
            <linearGradient id="SVGID_105_" gradientUnits="userSpaceOnUse" x1="150.4727" y1="268.5548" x2="157.5457" y2="268.5548">
                <stop offset="0" style="stop-color:#d60812"/>
                <stop offset="0.5121" style="stop-color:#aa0413"/>
                <stop offset="1" style="stop-color:#840013"/>
            </linearGradient>
            <path d="M150.8,268.7c1-0.2,1.1-0.2,3.4-2c2.7-2,3.1,1,3.1,1.5c0.1,0.5,0.9,3.6-2.4,2.6c-2-0.6-2.8-1.1-4-0.9
			C150.3,270,150.3,268.8,150.8,268.7z" style="fill:url(#SVGID_105_)"/>
            <linearGradient id="SVGID_106_" gradientUnits="userSpaceOnUse" x1="148.3395" y1="261.2569" x2="155.0603" y2="261.2569">
                <stop offset="0" style="stop-color:#d60812"/>
                <stop offset="0.5121" style="stop-color:#aa0413"/>
                <stop offset="1" style="stop-color:#840013"/>
            </linearGradient>
            <path d="M148.5,263.1c0.8-0.6,0.9-0.7,2.1-3.4c1.4-3.1,3.2-0.5,3.5-0.1c0.3,0.4,2.5,2.8-0.9,3.4c-2.1,0.4-3,0.4-4,1
			C148.6,264.5,148.1,263.5,148.5,263.1z" style="fill:url(#SVGID_106_)"/>
            <linearGradient id="SVGID_107_" gradientUnits="userSpaceOnUse" x1="143.7804" y1="256.6079" x2="149.0794" y2="256.6079">
                <stop offset="0" style="stop-color:#d60812"/>
                <stop offset="0.5121" style="stop-color:#aa0413"/>
                <stop offset="1" style="stop-color:#840013"/>
            </linearGradient>
            <path d="M143.8,259.3c0.4-0.9,0.4-1,0.3-4c-0.1-3.4,2.6-1.9,3.1-1.7c0.4,0.2,3.5,1.3,0.8,3.4
			c-1.6,1.3-2.5,1.7-3,2.7C144.6,260.5,143.6,259.8,143.8,259.3z" style="fill:url(#SVGID_107_)"/>
        </g>
        <g>
            <linearGradient id="SVGID_108_" gradientUnits="userSpaceOnUse" x1="130.9397" y1="260.6614" x2="136.0116" y2="260.6614">
                <stop offset="0" style="stop-color:#d60812"/>
                <stop offset="0.5121" style="stop-color:#aa0413"/>
                <stop offset="1" style="stop-color:#840013"/>
            </linearGradient>
            <path d="M132.3,262.5c-3.1-1.3,0-3.2,0.5-3.5c0.5-0.2,3.2-2,3.2,1.4C136.1,262.5,135.2,263.7,132.3,262.5z" style="fill:url(#SVGID_108_)"/>
            <linearGradient id="SVGID_109_" gradientUnits="userSpaceOnUse" x1="126.0025" y1="267.8715" x2="130.5439" y2="267.8715">
                <stop offset="0" style="stop-color:#d60812"/>
                <stop offset="0.5121" style="stop-color:#aa0413"/>
                <stop offset="1" style="stop-color:#840013"/>
            </linearGradient>
            <path d="M128.5,270.1c-3,1.6-2.5-2-2.4-2.5c0.1-0.5,0.4-3.7,3.1-1.7C130.9,267.2,131.3,268.6,128.5,270.1z" style="fill:url(#SVGID_109_)"/>
            <linearGradient id="SVGID_110_" gradientUnits="userSpaceOnUse" x1="127.5387" y1="276.9929" x2="132.2539" y2="276.9929">
                <stop offset="0" style="stop-color:#d60812"/>
                <stop offset="0.5121" style="stop-color:#aa0413"/>
                <stop offset="1" style="stop-color:#840013"/>
            </linearGradient>
            <path d="M132.1,277.8c-0.6,3.3-3.2,0.7-3.5,0.3c-0.3-0.4-2.7-2.6,0.6-3.5C131.3,274.1,132.7,274.7,132.1,277.8z" style="fill:url(#SVGID_110_)"/>
            <linearGradient id="SVGID_111_" gradientUnits="userSpaceOnUse" x1="135.8179" y1="280.5304" x2="141.114" y2="280.5304">
                <stop offset="0" style="stop-color:#d60812"/>
                <stop offset="0.5121" style="stop-color:#aa0413"/>
                <stop offset="1" style="stop-color:#840013"/>
            </linearGradient>
            <path d="M140.4,279.8c2.2,2.6-1.4,2.9-1.9,2.9c-0.5,0-3.7,0.4-2.3-2.7C137,278.2,138.3,277.4,140.4,279.8z" style="fill:url(#SVGID_111_)"/>
            <linearGradient id="SVGID_112_" gradientUnits="userSpaceOnUse" x1="144.1851" y1="277.0148" x2="149.076" y2="277.0148">
                <stop offset="0" style="stop-color:#d60812"/>
                <stop offset="0.5121" style="stop-color:#aa0413"/>
                <stop offset="1" style="stop-color:#840013"/>
            </linearGradient>
            <path d="M147.1,274.6c3.4-0.1,1.4,2.9,1.1,3.3c-0.3,0.4-2,3.2-3.5,0.2C143.7,276.2,144,274.7,147.1,274.6z" style="fill:url(#SVGID_112_)"/>
            <linearGradient id="SVGID_113_" gradientUnits="userSpaceOnUse" x1="146.236" y1="267.6299" x2="150.781" y2="267.6299">
                <stop offset="0" style="stop-color:#d60812"/>
                <stop offset="0.5121" style="stop-color:#aa0413"/>
                <stop offset="1" style="stop-color:#840013"/>
            </linearGradient>
            <path d="M147.2,266.1c2-2.7,3.2,0.7,3.3,1.2c0.1,0.5,1.3,3.5-2.1,2.9C146.4,269.7,145.3,268.6,147.2,266.1z" style="fill:url(#SVGID_113_)"/>
            <linearGradient id="SVGID_114_" gradientUnits="userSpaceOnUse" x1="140.4847" y1="260.8213" x2="145.593" y2="260.8213">
                <stop offset="0" style="stop-color:#d60812"/>
                <stop offset="0.5121" style="stop-color:#aa0413"/>
                <stop offset="1" style="stop-color:#840013"/>
            </linearGradient>
            <path d="M140.6,260.7c-0.9-3.3,2.5-2,3-1.8c0.5,0.2,3.5,1.2,0.9,3.4C143,263.6,141.5,263.7,140.6,260.7z" style="fill:url(#SVGID_114_)"/>
        </g>
        <linearGradient id="SVGID_115_" gradientUnits="userSpaceOnUse" x1="135.733" y1="266.0245" x2="141.0505" y2="266.0245">
            <stop offset="0" style="stop-color:#d60812"/>
            <stop offset="0.5121" style="stop-color:#aa0413"/>
            <stop offset="1" style="stop-color:#840013"/>
        </linearGradient>
        <ellipse cx="138.4" cy="266" rx="2.7" ry="2" style="fill:url(#SVGID_115_)"/>
        <linearGradient id="SVGID_116_" gradientUnits="userSpaceOnUse" x1="132.2602" y1="272.0064" x2="136.8143" y2="272.0064">
            <stop offset="0" style="stop-color:#d60812"/>
            <stop offset="0.5121" style="stop-color:#aa0413"/>
            <stop offset="1" style="stop-color:#840013"/>
        </linearGradient>
        <path d="M136.2,274.1c-0.9,0.7-2.3,0.3-3.2-0.9c-0.9-1.2-0.9-2.6-0.1-3.3c0.9-0.7,2.3-0.3,3.2,0.9
		C137,271.9,137.1,273.4,136.2,274.1z" style="fill:url(#SVGID_116_)"/>
        <linearGradient id="SVGID_117_" gradientUnits="userSpaceOnUse" x1="140.1114" y1="272.0093" x2="144.6717" y2="272.0093">
            <stop offset="0" style="stop-color:#d60812"/>
            <stop offset="0.5121" style="stop-color:#aa0413"/>
            <stop offset="1" style="stop-color:#840013"/>
        </linearGradient>
        <path d="M144,269.9c0.9,0.7,0.8,2.2-0.1,3.3c-0.9,1.2-2.4,1.5-3.2,0.8c-0.9-0.7-0.8-2.2,0.1-3.3
		C141.7,269.6,143.2,269.2,144,269.9z" style="fill:url(#SVGID_117_)"/>
    </g>
</svg>
